<?xml version="1.0" encoding="UTF-8" standalone="no"?>
<!-- Created with Inkscape (http://www.inkscape.org/) -->
<svg xmlns:inkscape="http://www.inkscape.org/namespaces/inkscape" xmlns:rdf="http://www.w3.org/1999/02/22-rdf-syntax-ns#" xmlns:ns1="http://sozi.baierouge.fr" xmlns:dc="http://purl.org/dc/elements/1.1/" xmlns="http://www.w3.org/2000/svg" xmlns:cc="http://web.resource.org/cc/" xmlns:xlink="http://www.w3.org/1999/xlink" xmlns:sodipodi="http://sodipodi.sourceforge.net/DTD/sodipodi-0.dtd" id="svg6160" version="1.0" viewBox="0 0 1026 1535.5" inkscape:version="0.91 r13725">
  <g id="layer1" transform="translate(-301.29 250.53)">
    <path id="path8112" style="fill-rule:evenodd;fill:#efc5af" d="m822.65 307.25l-60.45 18.4-89.36 95.93-43.37 59.14-24.97 31.53-13.14 17.09 9.2 51.25 21.02 97.24 53.88 151.13 23.66 88.05-18.4 44.68 39.42 22.34 53.88 23.67 76.22 27.6 23.66 11.8-1.32-13.1-7.88-14.5 1.31-5.2 14.46-42.1-3.94-59.14-10.52-10.51 2.63-9.2 27.6-27.59-7.89-39.43-11.82-10.51-3.95-6.57-6.57-9.2 3.94-22.34 10.52-27.6-15.77-23.65 10.51-95.93-6.57-107.76-9.2-219.46-43.36 1.31 6.57 2.63z"/>
    <path id="path8623" style="fill-rule:evenodd;fill:#efc5af" d="m889.22-90.806l-21.09 6.491-19.48 16.226-25.15 28.397-31.64 31.642-21.9 22.717-35.7 25.963-30.83 29.208-24.34 32.452-13.8 25.15 15.42 10.55 52.74 42.19 75.45 42.19 132.25 57.6 27.75 9.18 36.5 5.51 5-1-3-6.51-14.48-6-11.01-2.51-6.5-6-1-3.51 23.52 3.51 36.07-2.5 2.5-5.01-17.1-4.5-21.47-1-4.51-4.01 26.48-4 21.1-4.51 1-3-2-2.5-12.5-1.5-30.07 3 10.97-5 11-9.51 13.1-12.52-2-2.5-23.1 9.51-43.5-6.5 8-36.04-11.51 1-22.52 22.52s-23.52 14.02-27.02 14.02c-3.51 0-68.07-43.54-68.07-43.54l-29.02-23.53-23.02-20.51-28.03-15.52-11.01-5.5 24.52-8.01 56.05-45.044 8.01-20.018-2-9.009 19.02-14.013 3.5-14.513-7.51-11.511-6-15.514 8.51-11.01 27.52-0.501 8.51-21.52 11.01-14.513-13.62-15.12z"/>
    <path id="path8625" style="fill-rule:evenodd;fill:#efc5af" d="m971.9-64.676l-12.01 13.512 1.5 12.512-2.5 7.007-21.52 5.004-5 23.022 20.02-3.0032 7.5 14.514-7 20.018 4.5 7.507 6.01 2.002 5 16.515 42.5 5.005 33.1 21.019 12.5 25.522h21.5l10.5 1 4.5-15.511 23-3.003 7 6.005 10.1-7.006 22 0.5-11.5-18.016 18.5-16.516v-28.026l-20.5-40.538-49.1-6.005s39.6-24.523 41.6-24.022c2 0.5 41-38.036 41-38.036l28.5-39.536 6-46.04-60.5-35.04-53.1 23.03-40 32.03-30.5 65.556-21.1 18.017-32.5 1.001z"/>
    <path id="path8627" style="fill-rule:evenodd;fill:#efc5af" d="m1069.5 154.53l-2.5 39.53-1 49.05 7 47.04 6.5 49.55 14 46.04 30.5 70.57-4.5 11.51-8 12.51-0.5 19.52v12.01l-21.5 25.52 4.5 6.01 19-7.01 12.5-17.01 6.6-14.52 16 21.02 15 23.52 8.5 11.01 0.5 18.52 6 13.51h3.5l2.5-24.02-4-20.52-9.5-24.52 0.5-2.5 18.5 10.01 12 15.51 12.5 22.02 14 11.01 3-2.5-10.5-18.02-13.5-29.52s-9.5-9.01-7.5-9.01 17.5 7.5 17.5 7.5l10 6.01 9 11.51 11.1 8.01 5.5-3.5-6.5-8.01-7-11.01-6.6-11.01-16-5.51-14.5-6.5-12.5-18.02-10-14.51-13-11.01-5.5-16.52-6-49.05-4.5-51.04-5.5-43.04-12-26.03-3.5-9.01 19-86.58 5-58.05-11-4.5-10.5 2.5-0.5 10.51 6 12.51-10.6 2.5-7 5.01-2 7-16.5-4-14-20.52-19 8.01 1 10.51z"/>
    <path id="path8629" style="fill-rule:evenodd;fill:#ffffff" d="m1085-142.25l9.5 13.01 22.5 5.51-1-9.01-12.5-12.51-18.5 3z"/>
    <path id="path8631" style="fill-rule:evenodd;stroke:#000000;stroke-width:1px;fill:#ffffff" d="m1139.6-109.72l9 13.014 18.5 5.505-1.5-12.509-12-7.51-14 1.5z"/>
    <path id="path8633" style="fill-rule:evenodd;fill:#b20f72" d="m1054-224.83l-22.5 15.02-14.6 3.5-12 19.02-4.5 24.02-12.98 44.04-27.53-8-12.01 14.01-22.02 5.5-13.51-9.51-10.51 6.51-12.01 11.512 17.51 26.524-17.51 14.514-8.01 19.018-11.51 3.503-17.02-4.504-7 22.02 18.51 13.513-8.5 18.016-18.02 12.512 4 22.021 11.01 18.517 0.5 35.534 56.06 52.05 78.07 4 50.08 15.52 35.5-31.03 15.5-8.01 5.5 12.01 8 11.51 17.5-1 3-6.51 14.1-6-4.5-17.52 5-4 12-0.5 3.7 3.82 9.8-5.82 9 6.5 8.5 6.01 19-9.01s-2.5-16.52-2.5-19.02 0-5.504-8.5-4.5c-8.5 1-20.5 7-20.5 7l-4 6.51-4.5-0.5 1.5-17.517 6.5-7.507 19-1.001 2.5-8.007-5.5-21.02-14.5-2.502-2-11.01-6-25.024-5.5-14.513 1-18.517 21.5-21.02 24.5-5.505 18.5-21.019 1.5-28.527 3-17.521 6-23.52-24.5-56.05-24-17.52-17.5-26.02-47.1-11.51-36 14.01-9.5 17.52 6 10.01 43-13.01 53.1 17.01 30.5 27.53 8 22.02-7 27.52-26 27.529-19.5 22.021-13.5 55.551 4 18.518 8.5 18.517 4 26.024-6.5 10.009-9.5 4.004 1.5 15.514-2.5 8.508-15.5 0.501-7.6 7.006-12-8.007-17.5 0.5-4.5 15.515-10.5 4-23.5-7.504-21.5-24.522-58.59-20.519-9.01-7.007-4-10.51-10.51-3.503 5.5-20.019-5-17.015-9.51-2.5027-12.01 0.5004 7.5-20.019 9.01-4.504 10.51-3.003 3.5-15.514 1.51-12.512 30.02-12.512 22.48-0.5 25.6-44.045 29.5-49.54 0.5-25.53-17.5-31.53z"/>
    <path id="path8635" style="fill-rule:evenodd;fill:#b20f72" d="m918.85 293.16l-48.04 24.52-0.5 158.65 2.5 96.59 1 71.56-9.01 67.57 15.02 40.53-6.01 13.52-4 19.01-2 17.02 20.02 23.52-5.01 51.55-11.51 16.51v16.52l11.51 20.02-8.51 57.05-9.51 22-2 9.5 14.02 14.5 57.05 15.6 13.51-83.12s-33.03-19.52-32.03-21.52 14.01-71.56 14.01-71.56l-28.52-28.53 41.54-40.04-20.02-60.05 43.04-29.03-23.02-70.07s-39.54-4-39.54-9c0-5.01 21.52-29.03 21.52-29.03l42.04-5.51 6-40.03-23.52-45.55-12.01-8 36.53-56.06-32.53-49.04 24.53-23.52 15.51-47.05-62.06-39.03z"/>
    <path id="path8637" style="fill-rule:evenodd;fill:#b20f72" d="m784.23 258.12l-36.53-11.01-21.52 8.51-9.51 9.01 10.51 30.03-11.01 10.01h-8.51l-11.01-4.01-12.51 13.52-2.51 7.5 2.01 18.02 27.52 14.51-24.52 36.04-19.02 19.01-7.51-1.5s-6.5-5-8.5-4.5c-2.01 0.5-22.53 8.51-22.53 8.51l-11.51 20.52 5.01 15.01 22.02 7.51 39.04-44.04 61.05-75.07-1.5-21.02 23.02-7.51 18.52-34.03-3-14.52 2.5-0.5z"/>
    <path id="path8639" style="fill-rule:evenodd;fill:#b20f72" d="m625.08 731.06l-21.52 18.52-4 21.02 9.51 32.53-20.02 10.01-20.02 6.51-7.51 19.51 4.51 19.02 18.01 16.02-7 16.51-18.02 10.51 4 15.02 33.03 7.5 5.51-12.01-10.51-25.02 7.51-11.51 27.02-5.01 12.01-39.03-22.02-21.02 40.04-15.52 3-13.51-20.02-47.04-13.51-3.01z"/>
    <path id="path8641" style="fill-rule:evenodd;fill:#9734bd" d="m1050.6-212.88l-17.7-0.61-4.2 6.71-15.9 0.61-12.8 24.39 4.9 19.51 21.9 20.12 20.2-9.15 24.3-21.95-5.4-23.17-15.3-16.46z"/>
    <path id="path8643" style="fill-rule:evenodd;fill:#9734bd" d="m1200-104.95c-7.9 0-20.1 18.288-20.1 18.288l-17.1 20.732 5.5 27.439 24.4 4.878 17.1-15.854 13.4-9.146v-14.025l-0.6-16.463-22.6-15.849z"/>
    <path id="path8645" style="fill-rule:evenodd;fill:#9734bd" d="m301.91 850.5l3.35 108.73 70.71 258.67 105.21-162.1 62.08 172.5 75.89-153.5 48.29 174.2 117.28-146.6 53.46 160.4 98.31-79.4 10.34 82.8 136.27-51.7 29.3 56.9 98.3-13.8 80.5 27.2 22.1-0.8-11.2-14.3-198.3-112.1-181.11-98.3-81.06-25.9-110.38-50.02-129.35-50.02-112.1-39.67-56.91-12.07-94.86-36.22-36.12 5.1z"/>
    <path id="path8667" style="fill-rule:evenodd;fill:#7b1726" d="m793.45 179.9l-2.12 15.95 18.08-0.53 1.59-3.72-17.55-11.7z" transform="translate(301.29 -250.53)"/>
    <path id="path8110" style="fill:#000000" d="m301.29 1072v-212.88l4.25 0.51c25.19 2.99 54.2 12.43 93.25 30.35 1.1 0.5 5.82 2.3 10.5 4 9.03 3.28 12.38 4.13 37.4 9.49 8.75 1.88 21.35 4.74 28 6.36 6.65 1.63 16.82 3.91 22.6 5.08 10.47 2.12 27.26 6.29 32 7.95 1.37 0.48 5.87 1.87 10 3.07 7.87 2.31 11.48 3.57 27 9.47 14.23 5.41 19.87 7.94 38.5 17.27 9.35 4.68 20.82 10.2 25.5 12.26 4.67 2.06 10.75 4.77 13.5 6.01s7.02 3.15 9.5 4.24c2.47 1.1 12.82 6.03 23 10.96 28.01 13.58 38.02 17.46 48.33 18.76 9.48 1.2 15.45 3.2 23.92 8 2.93 1.6 12.06 5.2 20.29 7.9 24.4 8.1 25.92 8.7 51.46 21.3 29.26 14.5 54.87 26.8 55.47 26.8 0.7 0 17.39 7.8 40.83 19 8.14 3.9 14.98 7 15.19 7s4.13 1.8 8.7 3.9c4.57 2.2 11.01 5.1 14.31 6.6 6.03 2.7 12.36 6.2 29 16.3 7.18 4.3 38.51 20.1 48.01 24.2 1.1 0.5 5.4 2.4 9.5 4.3 12.2 5.5 17 7.5 27 11.2 13.5 5 23 10.2 44.7 24.2 16.6 10.6 17.2 11 38.8 22.3 5.5 2.9 12 6.5 14.5 8.1 2.5 1.5 12.8 7.3 23 13 10.2 5.6 18.9 10.5 19.5 10.9 1.1 0.9 8.4 4.9 19 10.5 3.8 2.1 8.4 4.6 10.1 5.7 5.4 3.2 27.4 14.7 37.9 19.7 5.5 2.7 11.6 5.8 13.5 7l3.5 2.1h-495.76-495.75v-212.9zm1004 210.3c-1.9-1.4-11.6-6.5-21.5-11.3s-24.5-12.5-32.5-17.1c-8-4.5-15.7-8.9-17.2-9.7s-3-1.8-3.4-2.3c-0.3-0.6-2.2-1.8-4.2-2.8-6.8-3.5-13.2-7.1-25.5-14.5-6.7-4.1-14.2-8.6-16.7-9.9-5-2.8-12.2-6.7-22-12.2-3.6-2-7.2-4-8-4.6-0.8-0.5-2.2-1.3-3-1.7-3-1.3-22.6-13.2-25.2-15.2-1.4-1.1-2.9-2.1-3.2-2.1s-3.9-2.1-7.9-4.6c-13.1-8.4-39-20.9-57.1-27.5-6.1-2.3-13.6-5.2-16.6-6.6s-6.4-2.9-7.5-3.4-2.7-1.3-3.5-1.9c-0.8-0.5-2.6-1.4-4-2-1.4-0.5-4.8-2.2-7.5-3.8-2.8-1.5-8.8-4.8-13.5-7.2-4.7-2.5-9.86-5.4-11.51-6.4-7.46-4.7-10.37-6.5-15.5-9.8-11.69-7.5-49.49-26.8-52.6-26.8-0.5 0-2.09-0.6-3.54-1.4-1.45-0.7-5.05-2.1-8-3.1-4.65-1.5-18.3-6.8-24.36-9.4-23.49-10.2-59.02-27.6-61.5-30.1-0.73-0.7-13.79-6.6-18.68-8.4-3.34-1.2-28.37-9.6-30.32-10.1-0.28-0.1-1.77-0.7-3.32-1.3s-3.21-1.2-3.69-1.2c-1.24 0-34.97-11.2-44.49-14.77-14.68-5.52-17.91-6.96-34-15.16-17.88-9.12-18.21-9.29-21-10.81-4.86-2.65-18.29-9.23-18.84-9.23-0.34 0-2.98-1.06-5.89-2.35-5.36-2.39-18.19-7.33-31.77-12.22-4.13-1.48-9.39-3.54-11.7-4.56-2.31-1.03-4.4-1.87-4.65-1.87s-4.21-1.74-8.81-3.87c-7.65-3.56-20.47-9.21-25.34-11.17-1.1-0.44-8.3-3.36-16-6.48-23.71-9.6-45.47-15.75-67-18.95-11.76-1.74-29.33-4.96-35-6.4-6.55-1.68-26.8-8.07-33.5-10.58-9.33-3.49-23.57-9.12-33.5-13.23-6.05-2.51-13.03-5.38-15.5-6.39-7.13-2.89-24.35-7.93-27.13-7.93-1.4 0-2.88-0.33-3.29-0.75-0.41-0.41-1.05-0.77-1.42-0.8-0.36-0.03-2.01-0.37-3.66-0.74-1.65-0.38-4.8-0.93-7-1.22s-7.94-1.04-12.75-1.67l-8.75-1.14v-9.37-9.38l4.75 0.51c2.61 0.27 7.2 0.77 10.2 1.09 3.01 0.33 7.51 1.43 10 2.44 22.37 9.07 30.19 11.26 52.55 14.71 6.24 0.96 12.44 2.66 16.5 4.52 3.57 1.63 8.3 3.77 10.5 4.76 2.2 0.98 5.57 2.48 7.5 3.34 6.45 2.88 13.02 5.64 13.5 5.69 0.27 0.02 1.95 0.67 3.74 1.44s6.41 2.3 10.26 3.4c3.85 1.09 11.68 3.38 17.4 5.08 5.71 1.7 11.22 3.09 12.23 3.09s6.06 1.1 11.21 2.44 12.92 3.13 17.26 3.98c14.02 2.74 25.68 5.43 35.4 8.16 15.16 4.26 14.91 4.28 19.62-0.9 4.57-5.02 10.62-8.51 15.37-8.87 3.49-0.27 4.41-1.47 5.42-7.04 0.7-3.87-0.61-7.77-2.61-7.77-1.89 0-7.73-4.95-9.2-7.8-2.18-4.23-3.89-17.25-3.41-25.9 0.47-8.56 1.72-11.64 8.17-20.21 4.55-6.05 9.48-9.13 19.41-12.11 3.99-1.2 7.65-2.92 8.11-3.83s1.1-4.58 1.42-8.16 1.11-8.53 1.76-11c0.93-3.54 0.91-5.43-0.12-8.99-0.72-2.47-1.36-4.72-1.44-5-0.65-2.52-1.73-12.08-1.68-15.03 0.07-5.31 3.33-10.06 8.89-12.97 5.37-2.8 4.67-0.59 7.31-23.14 0.84-7.19 0.93-11.57 0.27-13.5-1.2-3.5-0.82-11.36 1.18-24.87 2.02-13.58 1.92-18.33-0.51-25.37-1.12-3.24-1.98-7.4-1.9-9.25 0.15-3.43-1.89-18.78-2.66-20.02-0.23-0.38-1.53-6.46-2.88-13.52-2.32-12.19-3.68-17.73-12.09-49.33-2.6-9.77-3.73-16.4-4.1-24l-0.52-10.5 3.84-6.18c2.12-3.41 6.43-8.93 9.6-12.27 3.35-3.54 5.75-6.98 5.75-8.24 0-5.12 8.16-27.62 12.98-35.8 5.24-8.88 6.02-11.68 3.52-12.64-0.81-0.32-3.1-2.77-5.08-5.46l-3.59-4.89 0.71-9.92c0.62-8.82 1.11-10.67 4.39-16.76 4.28-7.93 7.66-10.22 22.51-15.21 10.61-3.56 15.5-3.17 19.25 1.52 2.2 2.75 2.21 2.75 4.38 0.81 1.2-1.08 3.31-3.76 4.68-5.96s4.89-6.35 7.83-9.22c3.65-3.58 5.68-6.54 6.44-9.38 0.62-2.28 3.12-8.83 5.56-14.55 6.24-14.59 6.29-14.14-2.02-16.98-3.82-1.3-7.3-2.93-7.73-3.61-0.43-0.69-0.6-2.72-0.38-4.5 0.37-3.05-0.5-10.93-1.96-17.76-0.54-2.55 0.07-3.9 4.18-9.08 2.66-3.35 5.73-7.29 6.83-8.77 2.78-3.72 10.85-5.23 16.13-3.02 3.6 1.5 3.78 1.48 5.5-0.79 2.32-3.05 3.28-5.22 5.15-11.61 1.46-4.96 1.43-5.62-0.46-11-4.05-11.5-0.22-21.79 9.18-24.72 1.37-0.43 4.52-2.74 7-5.14 24.45-23.68 41-40.34 41-41.3 0-0.64-1.47-1.84-3.25-2.66-2.91-1.33-6.52-3.38-17.57-9.94-1.82-1.08-8.35-4.93-14.51-8.55s-14.51-9.13-18.54-12.25c-4.04-3.11-7.63-5.67-7.99-5.67-0.35 0-1.99-1.27-3.64-2.81-1.65-1.55-5.7-4.72-9-7.04-13.25-9.33-23.63-16.26-25.27-16.86-2.41-0.89-8.53-5.46-9.73-7.28-2.07-3.11-2.13-6.54-0.19-10.48 2.39-4.86 6.91-11.91 7.94-12.36 0.41-0.18 0.75-0.77 0.75-1.3 0-1.19 6.73-12.455 9.83-16.454 15.98-20.588 20.79-26.215 31.11-36.412 9.6-9.494 11.68-11.191 37.13-30.306 18-13.525 26.21-20.849 32.14-28.676 3.99-5.2619 20.78-22.134 66.72-67.045 0.86-0.84 2.7-2.865 4.08-4.5 2.49-2.948 13.3-11.473 14.55-11.473 0.35 0 2.79-1.076 5.41-2.391 2.61-1.315 6.17-2.701 7.89-3.08 3.05-0.669 3.14-0.842 3.14-6.154 0-6.509 2.33-9.499 8.95-11.479 3.1-0.93 4.96-2.37 7.11-5.5 3.07-4.45 4.85-5.22 12.94-5.54 6.29-0.25 8.88 0.77 13.62 5.33l4.12 3.98 2.48-2.48c1.51-1.51 4.72-2.98 8.25-3.77 5.05-1.13 6.23-1.88 9.4-5.97 1.99-2.57 4.11-5.5 4.7-6.51 0.9-1.53 2.86-1.93 11.87-2.43 11.77-0.66 13.56-1.58 13.56-7.04 0-1.46 0.7-4.08 1.57-5.81 0.86-1.73 1.28-4.05 0.93-5.15-0.47-1.49 0.29-2.89 2.93-5.38 1.96-1.85 3.57-3.99 3.57-4.76s1.78-2.5 3.96-3.85c4.83-2.98 5.18-4.25 2.79-9.97-2.22-5.32-1.64-10.77 1.59-14.83 3.47-4.41 6.67-9.08 6.67-9.86 0-0.4 0.9-2.71 2.1-5.13 1.7-3.44 3.1-4.83 6.6-6.32 2.4-1.05 5.9-1.91 7.7-1.91 4.4 0 6.5-1.79 9.5-8.02 3-6.18 8.3-9.69 15.6-10.3 1.1-0.1 4.3-1.63 7.1-3.4 8.4-5.39 28.9-10.37 41.9-10.19 2.7 0.04 7-0.45 9.5-1.09s5.2-1.31 6-1.48c0.9-0.18 3.3-1.03 5.3-1.88 5.2-2.17 13-2.72 19.6-1.39 5 1.02 20.3 8.09 24.1 11.15 3.1 2.53 13.6 7.37 17.2 7.91 10.1 1.53 19.3 13.57 18.6 24.56l-0.3 5.59 6.5 3.18c3.5 1.75 7.8 4.24 9.4 5.52 6 4.63 13.3 12.39 14.1 14.84 0.4 1.38 1.7 4.44 2.8 6.81 1.7 3.67 1.9 5.5 1.3 12.26-0.7 8.96-0.7 9.2 7.4 21.6 4.2 6.42 5 8.33 5 12.38 0 6.13-2.8 12.34-7.8 17.68-2.2 2.32-5 6.23-6.2 8.686l-2.1 4.462 2.5 5.313c2.6 5.547 2.6 6.399-0.3 15.811-0.6 1.924-0.8 5.58-0.5 8.123 0.6 4.293 0.4 4.911-3 8.602-2 2.187-5 4.397-6.8 4.912-2.6 0.744-4 2.226-6.8 7.259-4 7.221-9.3 11.092-15.1 11.1-2.1 0.003-4.2 0.679-5 1.611-1.1 1.291-2.5 1.477-7.1 0.95-5.5-0.62-6-0.502-8.3 2.144-1.3 1.54-2.7 3.991-3 5.447-0.7 2.973-2.6 4.892-7.1 7.155-2 1.027-3.9 3.443-5.8 7.2254-2.8 5.7961-2.9 9.0137-0.3 11.653 2.4 2.4661 4.7 8.1146 4.7 11.796 0 3.416 1.9 10.89 4.1 15.525 0.5 1.1 1 5.805 1.1 10.457 0.3 8.103 0.4 8.483 2.8 9.057 1.4 0.329 4.6 0.217 7.2-0.25 5-0.893 8.1 0.047 10.5 3.149 1.6 2.118 1.5 7.992-0.2 11.066-1.2 2.223-1.1 2.912 1.1 6.679 1.4 2.309 2.7 5.335 2.9 6.723 0.6 3.191-2.2 10.377-4.5 11.619-1 0.518-6.1 1.248-11.4 1.621-9.2 0.648-9.8 0.816-11.8 3.62-1.1 1.618-2.3 5.005-2.6 7.525l-0.5 4.59 4.2-3.93c5.1-4.667 6.6-5.333 10.7-4.69 2.2 0.345 4.5-0.277 7.6-2.125 6.2-3.652 8-3.371 12.4 1.941 3.2 3.964 3.7 5.304 3.9 10.364 0.2 3.19 0.8 6.74 1.4 7.88 1.6 3.02 1.3 7.97-0.6 11.27-1.4 2.32-2.8 3.07-7.3 3.92-3 0.57-7.8 2.21-10.6 3.64-8 4.13-11.8 2.61-16.5-6.63-2.6-5.11-3.5-5.96-6.5-5.98-3.4-0.03-4.2 1.87-4.8 11.98-0.4 5.23-0.9 11.64-1.1 14.25-1.3 12.29-1.6 15.43-2.1 17.75-0.2 1.38-0.6 4.3-0.9 6.5-1 9.65-1.7 14.23-2.6 17.5-0.6 1.93-1.7 7.78-2.4 13-1.6 10.48-2.1 13.34-3.7 20-0.5 2.48-1.2 5.35-1.4 6.39-0.2 1.05-1.2 5.32-2.3 9.5-1.9 7.23-5.3 22.9-6.5 29.81-0.4 2.57 0.2 4.26 3.1 8.5 1.9 2.92 4.7 7.74 6 10.73 2.8 6.26 7.1 24.87 10.2 43.57 2.8 17.48 2.8 17.77 3.6 35.5 0.3 8.53 1 20.9 1.5 27.5s1.2 15.6 1.5 20c0.9 12.52 4 30.51 6.6 38.67 2.5 8.11 4.3 11.2 9 15.52 10.9 10.1 13.7 13.49 23.9 29.68 4.5 7.11 4.5 7.14 12 9.51 21.9 6.96 22.9 7.69 30.3 22.17 4.5 8.72 10 16.99 11.9 17.79 1.3 0.55 0.9 3.84-0.7 5.13-1.8 1.5-7.8 0.79-10.8-1.29-3.7-2.54-14.2-12.92-17.1-16.87-1.8-2.43-5-4.73-9.3-6.76-7.1-3.29-8.6-3.37-5.6-0.32 2.5 2.64 4.7 7.38 7.8 17 3.4 10.7 7.1 18.12 13.7 27.62 3.4 4.87 3.5 6.38 0.3 7.82-5.6 2.55-12.9-1.81-21.5-12.79-6.2-7.92-6.6-8.52-14-23.14-2-4-4.5-8.07-5.6-9.05-2.3-2.11-15.2-11.19-15.9-11.19-1.3 0-0.2 4 3.4 12.4 6.9 16.11 7.4 18.87 7.5 40.85 0 10.87-0.2 19.75-0.6 19.75-1.9 0-6.5-2.38-8.3-4.28-2.1-2.25-5.8-9.72-4.9-9.72 0.4 0-0.1-1.15-1.1-2.56-1.2-1.91-1.6-4.75-1.6-11.13 0-8.74-0.8-11.65-3.9-14.31-1-0.82-3.5-4.65-5.5-8.5-4.8-8.86-6.9-11.69-15.1-20.15-3.7-3.76-7.5-8.76-8.6-11.1-1-2.33-2.3-4.25-2.9-4.25-0.5 0-2.2 2.92-3.8 6.49-3.4 7.39-10.7 17.32-15.4 20.93-5 3.81-12.6 6.64-19.4 7.29-5.2 0.48-6.7 0.27-8.3-1.22-3.3-2.95-2.5-6.65 2.2-11.23 7.3-6.95 14.1-14.55 17.4-19.52l3.3-4.77-0.4-13.16c-0.3-9.9 0-14 1-16.6 0.8-1.9 1.5-4.18 1.5-5.08 0-0.89 1.8-4.46 4-7.92s4-7.14 4-8.17c0-1.04-1.4-5.64-3.1-10.21-1.6-4.58-3.9-10.8-5-13.83-1.1-3.02-2.4-6.4-2.8-7.5-2.1-4.94-3.3-8.04-3.3-8.5 0-0.27-0.9-1.69-1.9-3.15-1.1-1.46-1.9-3.17-1.9-3.81 0-0.63-0.9-3.15-2-5.6-1.2-2.45-3.4-7.93-4.9-12.19-1.6-4.26-4.8-12.47-7.1-18.25-2.3-5.77-4.4-11.4-4.7-12.5s-0.9-2.9-1.3-4c-2.2-5.24-7.2-23.03-8.9-32-2.1-10.89-2.9-17.95-3.7-35.41-0.3-6.28-0.7-11.82-1.1-12.31-0.3-0.49-0.7-2.33-0.9-4.09-0.2-1.75-0.9-5.66-1.5-8.69-0.5-3.02-1.2-8.87-1.4-13-0.2-4.12-0.9-10.2-1.4-13.5-1.8-10-1.2-38.47 1.4-63.5l0.7-6.5-2.4 2.09c-1.3 1.15-3.9 3.04-5.8 4.2-4.2 2.47-37.2 36.21-35.5 36.21 0.4 0 2.9-1.6 5.6-3.57 3.4-2.49 5.7-3.47 7.6-3.25 3.8 0.44 4.1 3.65 0.8 10.3-3 6.27-6.9 10.52-14.8 16.34-3.1 2.34-5.7 4.71-5.7 5.27 0 0.57 0.3 0.81 0.8 0.55 0.9-0.57 12.6-1.92 16.1-1.86 1.4 0.02 4.1 0.51 6 1.08 2 0.58 4.8 1.29 6.2 1.58 3.9 0.79 4.4 4.98 1.1 8.05-2.4 2.24-7 3.45-19.2 5.03-10.5 1.37-38.97 3.53-12 4.61 1.1 0.04 2.3 0.21 2.7 0.32s3.8 0.55 7.5 0.99c3.8 0.44 7.1 1.2 7.4 1.68 0.3 0.49 1.6 0.88 3 0.88 3.7 0 6.1 1.6 6.8 4.57 0.9 3.49-0.6 5.03-5.7 5.95-2.3 0.42-4.8 0.89-5.6 1.05-1.7 0.36-11.4 1.16-24.6 2.04-7.7 0.51-11.73 0.28-17.39-1.01-7.84-1.78-9.2-1.6-7.1 0.94 1.68 2.02 6.53 4.04 11.82 4.94 2.28 0.38 4.4 1.11 4.71 1.61s1.61 0.91 2.88 0.91c1.28 0 4.48 1.19 7.08 2.65 5.5 3.09 7.9 7.35 6.2 11.06-1 2.29-1.7 2.34-6.5 0.55-2.3-0.86-1.5 2.49 1.9 8.74 2.5 4.49 6.8 14.02 7.9 17.5 0.7 2.2 1.6 4.43 2.1 4.95 0.5 0.53 0.9 1.88 0.9 3.02 0 1.13 2 8.58 4.5 16.55 3.2 10.22 4.8 17.28 5.4 23.98 0.9 10.15 0.8 11.09-1.5 29.5-3.7 30.2-3.5 42.53 1.6 70 1 5.5 2.1 12.7 2.5 16 0.3 3.3 1.3 8.64 2 11.86 3 12.8 0.8 42.66-4.4 60.64-0.6 1.93-1.7 5.98-2.5 9-0.8 3.03-2.2 7.3-3 9.5-2.4 6.19-2 12.97 1 19.28 4.1 8.74 5.2 16.09 4.8 31.98-0.4 14.52 0.3 18.69 3.3 20.99 0.9 0.69 1.2 1.25 0.6 1.25-1.1 0-1 8.21 0.2 13 0.3 1.38 1.2 5.46 1.9 9.07 1.2 5.98 6.6 24.58 8.6 29.43 9.8 23.9 12.2 83.67 4.9 122.5-1.1 5.78-2.4 11.63-2.9 13-0.5 1.38-1.8 5.88-3 10-4.5 15.42-8.2 27.57-9.1 29.5-0.5 1.1-2.5 7.63-4.6 14.5-3.3 11.29-3.7 13.62-3.7 24 0 11.03 0.2 12.07 4.7 25.31 11.5 34.31 14 47.01 13.9 71.16-0.1 19.2 1.2 30.6 4.7 41.4 1.1 3.4 2.5 10.2 3.1 15 0.6 4.7 1.2 9.8 1.5 11.1 0.2 1.4 0.6 7.3 1 13 0.8 13.2 2.3 28.4 3.1 31.7 0.5 1.9 2.5 3.4 8.8 6.3 4.4 2 9.2 4.1 10.6 4.5 9 2.7 36.9 16.4 41.2 20.3 1 0.9 2.6 2 3.7 2.6 1 0.6 4.4 2.9 7.6 5.1s7.2 4.9 9 6c1.7 1.1 4.7 3.2 6.6 4.6 5.5 4.2 21.2 13 38.4 21.6 17.3 8.6 26.5 13.6 30.6 16.5 1.5 1 2.9 1.8 3.2 1.8s3.5 2.1 7 4.5c3.6 2.5 8 5.2 9.8 6.1 1.9 0.8 6.1 3.2 9.5 5.3s7.5 4.5 9 5.3c2.9 1.5 11.8 6.4 18.4 10.2 1.9 1.1 9.6 5.1 17 9 7.4 3.8 15.2 8 17.2 9.3 2.1 1.3 4 2.3 4.2 2.3 0.6 0 13.7 8.9 15.8 10.8 1 0.9 1.8 3 1.8 4.9v3.3h-9.3c-8.2-0.1-9.6-0.3-12.7-2.6zm-439.01-251.9c0-1.3-1.46-4.1-3.23-6.1-3.75-4.2-4.16-9-1.28-14.5 0.96-1.9 2.37-4.5 3.13-6 0.76-1.4 1.57-5.68 1.8-9.47 0.24-3.79 1.11-11.29 1.95-16.65s1.61-14.36 1.7-20c0.1-5.64 0.54-13.17 0.98-16.75 0.45-3.57 0.94-9.45 1.1-13.05 0.24-5.7-0.02-6.88-2.02-9-6.45-6.84-7.05-14.61-2.09-26.76 1.82-4.44 4.58-9.57 6.13-11.38 2.82-3.3 2.82-3.32 2.82-18.06 0-8.11 0.06-14.96 0.12-15.22 1.11-4.52 2.45-13.76 2.31-16.04-0.09-1.64-0.23-4.34-0.3-5.99-0.11-2.28-1.03-3.58-3.88-5.45-4.31-2.83-7.61-6.32-9.84-10.4-1.95-3.55-2.33-13.43-0.65-16.98 0.68-1.47 1.71-3.68 2.28-4.92 0.6-1.3 0.81-5.42 0.5-9.67-0.45-6.24-0.22-7.94 1.46-10.8 1.11-1.86 2.01-4.18 2.01-5.15 0-2.85-3.85-16.94-7.26-26.63-2.98-8.42-3.18-9.86-3.15-22.5 0.01-9.32 0.54-15.51 1.7-20 1.91-7.4 1.94-8.23 1.1-28-0.42-9.77-1.05-14.99-1.93-16-1.09-1.24 0.38-2.4 0.06-7.5-0.94-14.73 4.31-29.79 4.3-65.02-0.01-19.27-0.38-36.82-0.83-39-3.18-15.5-3.96-20.28-4.95-30.48-1.37-14.19-3.01-24-4-24-0.41 0-3.84 2.04-7.63 4.52-15.47 10.17-29.08 16.37-73.91 33.7-4.4 1.7-8.42 3.46-8.94 3.92-2.79 2.48 7.39 44.99 14.38 60 3.58 7.72 9.07 17.61 13.5 24.36 1.8 2.75 5.66 8.83 8.58 13.5 2.91 4.68 5.83 8.95 6.48 9.5s2.2 2.7 3.44 4.78c1.24 2.07 3.56 4.45 5.15 5.27 4.2 7.22 0.66 3.71 7.02 8.81 2.21 0.36 2.37 0.79 2.15 5.76-0.13 2.96-0.8 6.73-1.49 8.38-1.72 4.13-1.35 23.17 0.62 32.25 1.62 7.44 7.31 23.36 8.68 24.26 1.95 1.3 9.03 22.16 11.86 34.99 3.26 14.73 4.06 27.49 4.09 65.37 0.01 12.02 0.44 26.2 0.95 31.5 2.89 30.1 3.37 53.92 1.61 80.63-1.81 27.57-2.53 32.67-6.75 47.91-1.69 6.1-3.75 13.79-4.59 17.09-0.84 3.27-2.3 8.57-3.26 11.77-1.97 6.7-1.88 6.9 5.43 11.5 6.59 4.2 20.85 11.2 21.76 10.6 0.45-0.3 0.83-1.6 0.83-2.9zm43 2.6c2.44-0.7 2.45-0.7 0.34-1.4-1.19-0.4-3.66-0.6-5.5-0.5s-4.47-0.2-5.84-0.6l-2.5-0.7 2.36 2.1c2.4 2.1 6.42 2.5 11.14 1.1zm14.72-6.8c2.14-2.6 3.93-9.8 3.07-12.4-0.45-1.3-3.93 3.3-9.25 12.4l-3.37 5.7 3.66-1.5c2.02-0.8 4.67-2.7 5.89-4.2zm-31.83 1.1c-0.76-0.9-4.88-4.1-9.15-7.1-8.25-5.8-10.73-8.5-10.78-11.7-0.02-1.9-0.26-1.8-2.5 0.7-1.35 1.6-2.46 3.6-2.46 4.5 0.01 3.2 4.03 8.3 7.77 10 4.99 2.1 17.63 6 18.12 5.6 0.21-0.2-0.24-1.1-1-2zm21.38-7.4c2.98-2.3 7.73-11.3 7.73-14.7 0-3.3-6.68-9.49-14.47-13.32l-6.71-3.31-3.49 1.88c-3.79 2.04-12.03 11.65-12.93 15.15-1.01 3.8 2.08 8 7.25 9.7 6.63 2.3 10 2.1 12.89-0.8 3.72-3.7 3.29-7.8-1.15-11.2l-3.61-2.8 2.22-1.77c3.57-2.89 7.78-2.3 11.47 1.57 2.59 2.8 3.13 4.1 2.8 6.8-0.42 3.5-3.48 10.1-6.08 13.1-1.34 1.5-1.34 1.7 0.02 1.7 0.83 0 2.66-0.9 4.06-2zm15.07-20.22c-0.9-4.89-3.26-9.46-5.68-11.03-2.96-1.9-11.5-4.72-14.34-4.72-3.96 0-2.58 1.69 3.93 4.8 6.76 3.24 10.58 6.43 13.39 11.18 2.33 3.99 3.46 3.89 2.7-0.23zm-42.76-7.88c7.29-5.91 8.57-8.6 3.37-7.09-3.65 1.06-6.25 3.22-9.27 7.71-2.59 3.83-3.25 5.51-2.17 5.51 0.28 0 3.91-2.75 8.07-6.13zm-122.58-9.97c0-10.42 2.35-17.02 9.68-27.15 3.62-5.01 7.46-11.08 8.53-13.49 1.81-4.1 1.83-4.54 0.3-6.88-0.91-1.38-3.75-3.4-6.33-4.5-7.86-3.36-15.58-12.34-21.66-25.21-2.76-5.86-3.33-7.57-7.98-24.17-1.39-4.95-2.81-9.67-3.17-10.5-0.35-0.82-0.79-2.64-0.97-4.03-0.19-1.39-1.04-5.85-1.89-9.91-0.86-4.06-2.22-14.85-3.04-23.97-2.44-27.36-3.58-39.45-3.97-42.09-0.2-1.37-0.63-6.32-0.96-11-0.32-4.67-0.82-11.87-1.11-16-0.29-4.12-0.98-11.1-1.53-15.5-1.46-11.61-2.75-24.27-3.92-38.5-1.6-19.67-4.89-40.32-7.93-49.84-1.07-3.35-2.18-8.94-2.46-12.43-0.51-6.44-1.49-9.7-12.83-42.73-3.49-10.17-6.86-20.75-7.5-23.5-0.63-2.75-1.84-7.92-2.69-11.5-1.98-8.35-3.45-19.14-2.83-20.76 0.54-1.41 5.02-2.81 5.97-1.86 0.34 0.35 0.83 3.1 1.08 6.12 0.47 5.69 1.79 6.92 4.24 3.96 3.56-4.29 21.62-16.54 37.47-25.43 12.06-6.76 26.78-13.2 57-24.96 20.16-7.85 42.02-18.54 50.62-24.77 3.65-2.64 7.47-5.29 8.5-5.9 1.76-1.05 1.84-2.78 1.52-34-0.19-18.09-0.48-33.12-0.64-33.4-0.17-0.27-0.6-3.87-0.96-8-0.75-8.78-2.69-17.11-5.39-23.17-4.44-9.97-7.13-17.8-8.71-25.33-4.26-20.33-15.94-34.49-28.44-34.48-2.67 0-12.35 6.33-25.99 16.98-18.26 14.27-28.18 22.16-29.89 23.79-1 0.94-3.57 3.14-5.72 4.88s-7.74 6.91-12.43 11.5c-4.69 4.58-11.67 11.21-15.5 14.73-28.82 26.44-54.06 53.64-70.2 75.66-7.86 10.71-33.21 41.08-44.1 52.82-7.32 7.9-9.2 11.7-9.71 19.63-0.53 8.33 3.05 27.71 12.46 67.49 7.42 31.36 9.23 39.5 9.56 43.14 0.17 1.82 1.02 5.68 1.88 8.58 0.86 2.91 2.74 10.01 4.18 15.78 2.49 9.99 5.25 18.21 12.93 38.5 1.87 4.95 5.27 14.18 7.54 20.5 8.07 22.43 10.34 28.55 12.05 32.5 0.95 2.2 2.92 6.93 4.38 10.5 1.45 3.58 3.08 7.4 3.6 8.5 7.86 16.38 25.11 63.93 29.53 81.36 1.34 5.31 3.81 14.59 5.5 20.64 1.68 6.05 3.29 12.13 3.58 13.5 0.28 1.38 1.46 5.43 2.6 9 1.56 4.87 2.11 9.27 2.17 17.5 0.07 10.07-0.17 11.56-2.82 17.5-2.89 6.48-7.4 13.74-10.83 17.46-0.99 1.07-1.66 2.4-1.47 2.94 0.81 2.45 18.09 4.63 37.27 4.7 8.94 0.04 13.61 0.44 14.24 1.23 0.51 0.64 1.47 2.97 2.13 5.17 2.53 8.42 3.31 9.59 7.95 12.01 6.79 3.54 7.11 3.38 7.11-3.61zm142.9-63.89c5.44-2.31 6.6-5.43 6.56-17.65-0.03-7.76-0.45-11.63-1.38-12.75-1.85-2.23-3.42-2.01-2.8 0.39 0.51 1.93-2.63 12.19-5.1 16.71-0.66 1.21-3.4 3.3-6.09 4.65-4.83 2.43-4.91 2.43-7.94 0.59-4.28-2.6-8.54-12.07-7.82-17.41 0.46-3.43 2.67-6.54 4.67-6.54 2.4 0 3.9 3.06 4.3 8.74 0.64 9.28 3.78 11.68 9.2 7.01 3.99-3.43 4.5-9.63 1.2-14.61-2.36-3.58-2.99-3.91-8.58-4.54-5.35-0.61-6.46-0.41-9.93 1.78-5.4 3.41-10.48 11.21-9.85 15.12 1.6 9.99 6.14 16.78 12.26 18.34 4.66 1.19 18.64 1.3 21.3 0.17zm-314.9-7.05c0-5.22-3.43-10.51-7.98-12.33-6.11-2.44-11.61-2.13-14.57 0.83-1.35 1.35-2.45 2.92-2.45 3.5 0 1.9 5.85 1.12 7.87-1.05 1.38-1.48 2.59-1.89 4.11-1.41 1.84 0.58 2.12 1.33 1.89 5.06-0.31 4.96 0.02 5.48 4.45 7.12 5.42 2 6.68 1.68 6.68-1.72zm17.33-46.14l10.83-3.12 2.46-5.58c4.27-9.65 4.77-13.68 2.32-18.74-1.17-2.41-2.65-4.39-3.28-4.41-0.64-0.01-3.41-1.14-6.16-2.49s-5.41-2.46-5.89-2.47c-0.49 0-2.79-0.95-5.1-2.11-3.9-1.94-4.57-2-9.09-0.72-5.35 1.51-8.57 5.13-10.42 11.71-1.39 4.94-3.26 22-2.6 23.72 1.64 4.29 8.57-1.25 11.2-8.96 1.91-5.61 1.05-7.27-1.77-3.39-2.41 3.3-3.83 3.52-3.83 0.56 0-5.17 2.29-8.76 6.65-10.43 5.33-2.04 13.26-1.2 13.5 1.42 0.36 3.9-0.42 6.63-2.96 10.43-1.48 2.22-3.41 5.09-4.27 6.39-0.87 1.29-3.26 4.16-5.31 6.38-2.04 2.21-3.42 4.5-3.06 5.09 0.76 1.22 1.9 1 16.78-3.28zm-35.56-12.23c0.61-1.32 1.39-4.14 1.74-6.25s1.31-7.06 2.14-11 1.36-8.21 1.17-9.5c-0.28-2.01-0.92-1.47-4.65 3.96-2.37 3.47-4.57 7.86-4.88 9.77-0.59 3.62 1.46 15.43 2.68 15.43 0.39 0 1.2-1.08 1.8-2.41zm331.44-38.59c3.5-1.33 7.02-3.78 10.44-7.28 4.65-4.78 5.22-5.85 5.88-11.18 0.98-7.78-0.15-22.89-1.96-26.39-2.01-3.88-3.79-5.15-8.24-5.84-2.11-0.33-5.11-1.49-6.67-2.58-2.32-1.62-3.91-1.89-8.63-1.46-3.18 0.29-7.33 1.25-9.21 2.15-4.56 2.16-9.82 9.1-9.82 12.96v3l2.93-2.99c3.3-3.39 13.75-8.78 20.51-10.58 4.23-1.13 4.66-1.06 7.14 1.24 4.99 4.64 12.11 24.56 10.71 29.95-0.29 1.08-2.83 3.37-5.66 5.09-2.82 1.71-6.71 4.63-8.63 6.47-3.36 3.22-10.35 6.44-13.98 6.44-2.29 0-3.99-2.12-8.55-10.68-3.61-6.77-3.76-7.42-2.65-11.11 0.64-2.16 2.32-5.62 3.73-7.69l2.56-3.78-2.3 0.62c-1.27 0.34-2.84 0.62-3.48 0.63-0.65 0.01-1.46 1.31-1.81 2.89-0.34 1.58-1.73 4.37-3.08 6.19-3.07 4.17-3.1 7.37-0.09 10.95 1.3 1.54 2.65 4.61 3 6.82 1.02 6.38 4.13 8.16 14.24 8.16 5.91 0 9.87-0.58 13.62-2zm-1.04-15.93l6.14-5.97-2.28-7.8c-3.45-11.75-4.58-13.3-9.79-13.3-3.7 0-4.93 0.59-8.53 4.07-2.4 2.32-3.27 3.61-2.03 3 3.15-1.54 6.23-1.29 11.07 0.91 5.56 2.52 6.67 5.37 4.57 11.72-2.08 6.31-3.48 7.73-6.81 6.9-2.24-0.57-2.63-1.17-2.49-3.88 0.31-5.72 0.03-6.72-1.91-6.72-5.32 0-6.84 12.38-2 16.3 3.53 2.85 7.12 1.52 14.06-5.23zm-266.84-4.55c4.29-2.81 1.07-5.07-9.89-6.95-1.68-0.29-4.38-1.16-6-1.93-4.5-2.14-9.44-2.83-9.44-1.32 0 1.67 7.68 9.13 11.5 11.18 3.65 1.96 10.03 1.51 13.83-0.98zm11.46-15.32c0.35-7.36-1.18-10.54-8.28-17.08-4.74-4.37-6.96-4.97-10.03-2.73-2.4 1.76-1.59 3.75 5.48 13.47 2.77 3.81 5.04 7.21 5.04 7.57 0 2.12 3.53 5.64 5.39 5.37 1.85-0.26 2.14-1.07 2.4-6.6zm-16.5-0.83c1.75-1.74-6.52-11.37-9.76-11.37-2.17 0-9.53 4.52-9.53 5.85 0 2.08 3.06 4.49 6.58 5.17 5.05 0.97 11.9 1.16 12.71 0.35zm-20.79-12.95c1.65-1.42 4.52-3.79 6.39-5.25 14.26-11.22 16.35-13.48 13.46-14.58-4.96-1.91-10.81 0.83-19.05 8.87-4.2 4.11-6.3 7.99-6.3 11.61 0 2.65 1.93 2.42 5.5-0.65zm299-36.73c2.75 0.04 7.25 0.4 10 0.8 6.58 0.95 12.08-0.63 16.75-4.81 4.05-3.63 4.9-7.38 2.25-10.03-1.93-1.93-3.49-6.06-3.56-9.46-0.05-2.28-0.4-1.93-2.34 2.31-1.25 2.75-3.89 6.35-5.87 8s-5.5 4.58-7.82 6.5c-5.45 4.53-8.13 5.23-12.69 3.32-2.02-0.84-6.27-1.9-9.44-2.35-3.62-0.51-7.86-2.05-11.36-4.14-3.08-1.83-6.57-3.87-7.76-4.54-1.28-0.71-2.38-2.55-2.7-4.5l-0.53-3.29-1.77 3.3c-1.72 3.22-1.71 3.42 0.53 7.94 1.63 3.26 3.74 5.5 7.16 7.59 6.43 3.93 9.86 4.69 17.65 3.92 3.57-0.35 8.75-0.6 11.5-0.56zm5.93-10.44c2.23-1.51 5.8-4.45 7.93-6.54 3.67-3.59 3.86-4.06 3.41-8.69-0.44-4.57-3.3-10.82-4.44-9.69-0.28 0.28-0.66 4.21-0.86 8.74-0.22 5.19-0.85 8.74-1.71 9.6-0.75 0.74-4.49 1.97-8.31 2.73-10.84 2.14-12.49 3.44-7.1 5.61 3.83 1.54 6.96 1.05 11.08-1.76zm-24.59-16.35c-0.07-12.43 0.45-13.62 6.16-14.01 6.56-0.46 8.78 0.11 11.95 3.07 2.62 2.45 2.98 3.29 2.12 4.91-0.86 1.59-1.77 1.85-5.05 1.41-4.81-0.65-7.02 0.85-7.02 4.76 0 5.25 0.78 5.96 6.6 5.96 6.96 0 9.42-2.17 9.34-8.25-0.1-7.34-1.93-10.88-6.94-13.45-2.48-1.26-6.47-2.37-8.87-2.47-3.56-0.13-4.72 0.29-6.22 2.25-3.35 4.37-7.91 14.95-7.91 18.33 0 3.18 3.16 8.59 5.02 8.59 0.48 0 0.85-4.99 0.82-11.1zm-9.85-5.51c0-0.61 0.84-2.19 1.85-3.5 1.02-1.31 2.16-3.65 2.54-5.19l0.68-2.8-3.28 2.28c-7.53 5.25-7.78 5.66-7.78 12.75v6.57l3-4.5c1.64-2.47 2.99-5 2.99-5.61zm54.8 0.99c0.24-3.72-0.24-5.41-2.43-8.57-1.5-2.17-3.93-4.57-5.4-5.32-3.13-1.62-6.15-5.86-5.9-8.28 0.67-6.75-2.81-8.85-15.03-9.07-10.09-0.18-15.4 1.4-18.38 5.47-1.02 1.39-1.69 2.69-1.5 2.88 0.2 0.2 3.5-1.14 7.35-2.97s8.84-3.63 11.09-3.99c3.8-0.6 4.32-0.39 7.25 2.95 1.73 1.97 3.16 4.06 3.16 4.63 0 1.06 2.99 4.96 11.23 14.62 2.61 3.05 5.28 7.06 5.95 8.91s1.46 3.36 1.77 3.36c0.3 0 0.68-2.08 0.84-4.62zm-23.79-16.39c0-2.14-6.41-5.02-9.95-4.47-5.93 0.92-5.65 2.18 0.68 2.97 2.25 0.28 5.15 0.94 6.43 1.45 1.29 0.52 2.45 0.97 2.59 1 0.13 0.04 0.25-0.39 0.25-0.95zm4.04-85.06c0.61-1.14 2.08-3.05 3.27-4.24l2.16-2.16-4.49-0.66c-6.63-0.98-23.37-5.87-24.1-7.06-0.35-0.56-0.87-0.63-1.17-0.16-0.63 1.02 9.33 12.06 13.15 14.6 3.77 2.49 9.76 2.32 11.18-0.32zm264.37-17.68c-0.8-19.95-1.9-25.44-7.9-37.75-5.1-10.51-7.7-20.69-6-23.45 1.3-2.2 21.8 9.38 27.6 15.63 1.4 1.55 4.6 6.42 6.9 10.82 2.4 4.4 4.9 8.45 5.5 9 0.7 0.55 3.1 3.89 5.5 7.41 5 7.46 12.6 15.82 13.5 14.86 0.4-0.36-1.3-3.27-3.7-6.47-3.8-5.01-7.9-12.55-10.8-19.8-2.9-7.22-5.3-11.7-8.7-16.05-4.8-6.2-11.3-15.87-11.3-16.77 0-1.88 12.7 1.53 17 4.57 1.3 0.97 2.8 1.75 3.2 1.75s3.6 1.34 7 2.96c4.3 1.99 6.9 4.01 8.2 6.16 2.3 3.87 18 19.88 19.5 19.88 1.9 0 1.2-3.57-1.2-5.62-3.1-2.79-5.2-5.83-9.3-13.88-4.1-8.1-8.4-12.23-13.4-13.09-4.5-0.77-14.4-3.77-19.2-5.79-2.9-1.23-4.4-3.06-7.6-8.9-2.2-4.04-5.8-9.56-7.9-12.28-2.1-2.71-4.7-6.29-5.7-7.94-2.4-3.73-6.8-8.43-8-8.47-2.7-0.08-11.8-7.72-13.6-11.43-3.4-7.1-6.5-25.6-7.5-44.1-0.3-6.05-0.8-12.37-1.1-14.05-0.2-1.68-0.6-5.96-0.9-9.5-5.6-75.36-9-94.76-18.9-110.2-3.9-6.09-4.9-6.65-7.3-4.25-1.9 1.96-4.2 1.92-5-0.09-0.3-0.88 1.1-5.76 3.1-10.84 2.1-5.08 4.4-12.13 5.1-15.66 0.7-3.52 2-9.33 2.8-12.91 0.9-3.57 2.5-11.9 3.7-18.5 2.6-14.92 4.3-24.04 7-37.5 1.2-5.77 2.5-12.75 3-15.5s1.5-8.82 2.4-13.5c0.8-4.67 1.7-11.95 2.1-16.16 0.6-6.88 0.5-8.1-1.6-11.75-1.9-3.42-2.8-4.09-5.4-4.09-6.5 0-7.3 4.86-2.1 12.9 2.9 4.52 3.3 5.72 2.5 7.95-1.3 3.22-2.6 4.12-6.2 4.14-4.5 0.02-10.6 4.35-10.7 7.57 0 1.95-6 7.21-8.8 7.76-1.7 0.35-4.2-0.18-6.5-1.39-2.8-1.45-4.3-1.69-5.7-0.94-2.4 1.31-6.6 1.29-9.1-0.02-1.5-0.82-1.9-2.12-1.9-6.33 0-4.35-0.5-5.71-2.5-7.64-1.5-1.43-2.5-3.45-2.5-5.17 0-1.55-0.5-2.83-1-2.83-0.6 0-1 0.45-1 1.01 0 0.55-2.2 2.6-5 4.55-4.4 3.17-5 4.06-5.6 8.25-0.3 2.58-1.2 7.62-2 11.19-2.3 11.18-4.1 70.42-2.4 82 0.5 3.58 1.1 8.3 1.4 10.5s1.2 8.02 2 12.92c0.9 4.9 1.8 13.9 2.1 20 1 22.52 3 35.59 8.9 56.58 6.9 24.89 10.4 34.17 26.1 69.5 0.7 1.65 3.7 9.08 6.5 16.5 2.9 7.43 5.6 13.95 6 14.5s1.3 3.28 1.9 6.05c1.4 6.07 0.9 7.91-5.2 16.64-2.4 3.47-4.7 7.21-5.2 8.31-0.4 1.1-1.1 9.47-1.4 18.59-0.7 19.05-0.5 18.48-12.6 31.27-3.6 3.76-6.5 7.24-6.5 7.72 0 1.93 13.4-2.37 18.8-6.02 3.5-2.37 10.4-16.33 11.8-23.83 0.3-1.81 1.4-3.72 2.4-4.25 4.1-2.16 5.6-1.14 10.3 6.77 2.6 4.27 6.3 9.88 8.4 12.47 2.1 2.6 6.9 8.59 10.7 13.32s8.8 12.02 11.2 16.19c4 7.09 4.7 9.35 5.9 19.77 0.7 6 2.6 14.77 3.6 16.75 2.1 3.9 2.7 1.18 2.3-10zm-243.16 9.29c4.33-1.81 8.75-6.89 8.75-10.07 0-2.81-1.97-7.47-3.16-7.47-0.46 0-3.42 2.8-6.59 6.21-3.16 3.42-6.99 7.34-8.5 8.72-1.52 1.39-2.75 2.87-2.75 3.3 0 1.33 8.57 0.85 12.25-0.69zm-14.18-7.39l2.29-1.86-5.3-1.27c-6.89-1.65-18.94-0.56-16.85 1.53 0.47 0.47 13.01 3.02 16.42 3.35 0.63 0.05 2.18-0.73 3.44-1.75zm-23.07-3.02c0-0.49-0.67-1.44-1.49-2.12-1.58-1.31-1.57-1.45 1.04-12.79 1.57-6.83 1.96-7.48 6.31-10.49 5.72-3.96 13.68-7.73 16.3-7.73 1.92 0 1.92-0.07-0.16-3-1.62-2.27-2.92-3-5.37-3-3.18 0-3.9 0.56-12.22 9.31-4.16 4.37-12.4 20.83-12.41 24.79 0 1.68 2.48 4.27 5 5.19 2.27 0.84 3 0.8 3-0.16zm32.56-5.25c2.24-4.33 1.83-8.39-1.03-10.26-4.06-2.67-4.89-2.13-4.03 2.63 0.43 2.34 0.73 6.21 0.67 8.59-0.08 3.78 0.1 4.18 1.43 3.08 0.84-0.7 2.17-2.52 2.96-4.04zm-44.16-4.63c1.56-4.26 4.4-10.55 6.29-13.97 4.87-8.8 4.06-9.27-6.69-3.95-5.44 2.7-9.1 17.83-5.6 23.17 0.9 1.38 1.98 2.5 2.39 2.5 0.42 0 2.04-3.48 3.61-7.75zm31.6 1.28c0-0.81-1.47-3.54-3.25-6.08l-3.25-4.62 2.41-1.96c1.74-1.41 3.28-1.79 5.5-1.36l3.09 0.59-2.37-2.05c-2.81-2.44-4.07-2.52-8.74-0.57-4.45 1.86-6.92 4.86-8.44 10.24-1.87 6.61-1.18 7.28 7.51 7.28 5.97 0 7.54-0.3 7.54-1.47zm22.98-10.34c-0.02-4.87-1.8-8.14-5.56-10.24-2.95-1.64-12.42-4.15-12.42-3.29 0 2.46 5.08 9.08 9.43 12.29 2.98 2.21 5.71 4.48 6.06 5.05 1.19 1.92 2.51-0.09 2.49-3.81zm-12.52-75.81c1.95-0.75 4.76-6.18 6.48-12.53 0.7-2.57 2.49-7.24 3.99-10.39 1.54-3.22 2.54-6.75 2.29-8.07-1.24-6.49-15.07-13.67-20.15-10.46-1.06 0.68-0.08 1.55 3.94 3.49 2.95 1.42 6.1 2.58 7.01 2.58 3.1 0 4.22 4.65 2.53 10.46-4.93 16.97-11.37 23.07-20.04 19-5.13-2.41-14.71-5.46-17.17-5.46-3.19 0-3.01 2.48 0.41 5.66 3.85 3.59 6.62 4.44 12.58 3.82 3.17-0.33 6.9 0.02 9.67 0.9 5.36 1.7 6.33 1.82 8.46 1zm-3.28-14.99c2.25-3.87 3.32-8.39 1.99-8.39-0.58 0-2.5 2.03-4.28 4.5-3.54 4.94-4.94 5.3-11.39 2.97-2.2-0.79-5.92-1.44-8.25-1.45l-4.25-0.02-0.15-8.25c-0.29-15.79-0.46-17.23-2.11-17.55-2.55-0.5-3.01 1.49-2.81 12.15 0.17 9.09 0.44 10.46 2.68 13.39 2.19 2.88 3.05 3.26 7.24 3.26 2.61 0 5.17 0.41 5.7 0.92 1.46 1.4 9.71 2.82 11.95 2.05 1.1-0.38 2.75-1.99 3.68-3.58zm-33.18 0.81c0-0.44-0.46-1.25-1.01-1.8-1.15-1.15-2.92-13.56-2.96-20.83-0.03-3.72 0.5-5.51 2.14-7.25 1.19-1.27 1.83-2.65 1.41-3.06-0.41-0.41-1.27-0.08-1.92 0.75-0.64 0.82-2.33 2.09-3.75 2.82-7.68 3.96-10.12 8.93-8.53 17.39 0.87 4.66 8.47 12.78 11.96 12.78 1.46 0 2.66-0.36 2.66-0.8zm27.14-13.2c0.36-2.47 0.81-5.1 1-5.84 0.47-1.77-3.84-4.81-7.81-5.51-4.57-0.81-7.9 2.1-8.63 7.54-0.69 5.12 0.46 6.81 4.67 6.83 1.72 0.01 3.8 0.46 4.63 1 3.25 2.15 5.44 0.72 6.14-4.02zm-291.2-15c0.14-4.52 4.67-12.41 9.93-17.31 6.12-5.69 10.43-7.69 16.59-7.69 5 0 5.58-0.95 2.47-4.07-1.68-1.67-3.15-2.02-7.75-1.84-7.9 0.32-15.7 4.32-19.96 10.25-6.6 9.19-8.52 16.14-6.16 22.33 2.08 5.47 4.68 4.58 4.88-1.67zm10.45 2.42c1.05-2.74 0.66-5.42-0.79-5.42-1.75 0-2.83 2.7-2.06 5.14 0.72 2.28 2.03 2.41 2.85 0.28zm13.03-3.46c11.58-10.66 7.83-19.94-4.81-11.93-5.18 3.29-5.03 2.69-3.1 12.75 0.18 0.95 0.37 2.06 0.41 2.47 0.19 1.86 3.48 0.42 7.5-3.29zm249.58-5.19c22.24 1.59 26.51 0.73 21-4.27-2.3-2.08-15.34-4.83-18.43-3.89-2.59 0.8-10.57 7.19-10.57 8.48 0 0.55 1.16 0.64 2.75 0.22 1.51-0.4 3.87-0.64 5.25-0.54zm21.74-64.02c0.54-0.68 1.4-2.52 1.9-4.08 0.98-3.05 2.83-4.3 11.36-7.67 3.02-1.2 6.06-2.9 6.75-3.78 1.93-2.47 1.53-14.01-0.65-18.72-1.02-2.2-4.28-6.29-7.23-9.1-2.96-2.81-5.86-5.93-6.44-6.94-1.03-1.76-1.33-1.74-7.42 0.54-6.99 2.61-6.64 3.34 2.16 4.49 5.63 0.74 10.98 4.12 11.93 7.52 0.38 1.37 0.74 6.83 0.8 12.12 0.11 11-0.12 11.4-7.5 12.8-2.7 0.51-6.2 1.42-7.78 2.02-1.58 0.61-5.74 1.2-9.24 1.33-3.51 0.12-6.38 0.56-6.38 0.97 0 0.42 0.61 0.75 1.35 0.75 1.38 0 4.75 2.93 7.89 6.83 1.93 2.42 6.89 2.95 8.5 0.92zm-30.19-13.77c1.92-0.73 3.09-0.69 4.09 0.14 2.95 2.45 2.36-0.11-0.87-3.78-6.47-7.36-9.77-12.14-9.77-14.15 0-3.58 8.96-11.34 17-14.72 4.61-1.93 11-6.2 11-7.34 0-1.11-5.62-3.17-7.76-2.85-2.76 0.42-5.04 2.44-7.91 6.99-1.61 2.55-4.14 4.61-7.73 6.31-2.93 1.39-6.6 3.86-8.16 5.48l-2.83 2.95 1.84 7.25c2.17 8.52 3.89 12.26 6.3 13.66 2.17 1.27 1.65 1.26 4.8 0.06zm27.37-2.12c10.26-3.27 10.27-3.28 11.53-12.52 0.7-5.08-0.6-9.98-2.36-8.9-0.44 0.28-1.09 3.27-1.45 6.66-0.89 8.54-3.52 12.52-8.92 13.51-5.44 0.99-5.53 0.97-12.34-3.13-5.95-3.59-7.38-4.09-7.38-2.61 0 1.27 5.18 6.25 7.5 7.19 2.94 1.2 9.34 1.11 13.42-0.2zm-0.19-8.11c1.64-2.09 2.2-5.84 0.94-6.28-0.65-0.22-2.3-0.54-3.67-0.71-4.21-0.52-5-1.47-3.89-4.67 1.1-3.15 4.33-4.32 9.28-3.36 1.86 0.36 2.67 0.19 2.27-0.47-0.35-0.56-2.73-1.34-5.29-1.72-4.6-0.69-4.7-0.65-10.01 4.6-6.66 6.58-6.96 9.02-1.31 10.88 2.22 0.74 4.27 1.71 4.55 2.16 0.8 1.28 6.04 0.97 7.13-0.43zm-191.64-9.3c1.49-6.64 0.53-11.81-2.65-14.31-2.02-1.59-3.56-1.87-8.22-1.48-5.47 0.46-10.22 2.43-10.22 4.24 0 0.47 2.13 2.79 4.75 5.17 5.58 5.09 7.16 7.5 7.21 11.02 0.05 3.65 0.78 4 4.6 2.18 2.86-1.36 3.54-2.38 4.53-6.82zm-16.67 5.98c2.27-2.26 1.97-3.8-1.47-7.48-3.31-3.54-4.07-3.28-5.82 1.95-1.67 4.99-1.43 5.93 1.62 6.39 1.51 0.23 3.05 0.48 3.42 0.56 0.38 0.09 1.39-0.55 2.25-1.42zm192.97-10.65c3.94-3.69 5.51-5.73 4.41-5.75-0.93-0.01-2 0.48-2.38 1.1s-3.67 2.47-7.31 4.11c-8.83 4-9.39 4.87-5.95 9.24l2.16 2.75 1.48-2.86c0.81-1.58 4.23-5.44 7.59-8.59zm-215.48 1.2c1.12-5.24 5.22-14.23 7.84-17.21 0.84-0.95 3.71-2.02 6.39-2.38 2.67-0.35 4.86-1 4.86-1.43 0-1.18-6.47-4.96-8.49-4.96-2.74 0-10.93 6.53-13.99 11.14-2.39 3.62-2.7 4.88-2.23 9.28 0.62 5.84 2.23 10.58 3.6 10.58 0.52 0 1.42-2.26 2.02-5.02zm11.27-2.76c2.06-6.59 2.14-7.22 0.91-7.22-1.27 0-5.09 6.74-5.09 8.98 0 2.5 1.1 5.25 1.82 4.53 0.32-0.31 1.38-3.15 2.36-6.29zm56.66-35.76c1.38-3.04 1.5-5.46 0.26-5.46-0.49 0-2.37 1.39-4.19 3.08-2.66 2.48-3.01 3.25-1.85 3.98 2.51 1.59 4.58 1.02 5.78-1.6zm246.27-3.87c-2.3-2.43-7.75-4.68-20.61-8.53-5.89-1.76-8.12-3.12-13.99-8.54-4.46-4.11-6.63-6.78-6-7.37 1.03-0.97 9.09 0.24 24.68 3.7 4.78 1.06 8.88 1.74 9.11 1.52 0.23-0.23 4.41-0.61 9.31-0.85 4.9-0.23 12.6-0.97 17.1-1.63l8.3-1.21-5.3-1.85c-3.2-1.15-7.7-1.81-11.7-1.73-3.6 0.06-9.2-0.59-12.5-1.44-3.3-0.86-8.49-1.77-11.51-2.01-8.16-0.65-11.45-2.31-10.34-5.22 0.68-1.76 4.34-2.49 14.77-2.97 10.78-0.49 27.98-2.84 31.88-4.37 1.5-0.6 4.1-1.09 5.6-1.09 1.6 0 3.4-0.64 4-1.42 1-1.19 0.3-1.54-4.6-2.15-5.4-0.69-11.5-0.08-25.8 2.54-2.8 0.5-9.25 0.94-14.44 0.97-7.42 0.05-9.8-0.29-11.25-1.59-1-0.91-1.82-2.23-1.82-2.93 0-1.56 7.71-3.79 18.84-5.45 8.87-1.32 14.27-4.17 24.07-12.86 5.5-4.93 5.1-7.36-0.6-3.23-2.3 1.64-7.3 4.64-11.1 6.65-6.5 3.41-7.7 3.68-16.36 3.82-9.91 0.16-12.72-0.26-18.04-2.73-1.82-0.84-6.76-2.67-10.98-4.07-6.72-2.23-8.45-2.43-14-1.66-6.19 0.87-8.83 0.23-8.83-2.12 0-0.54 3.08-4.19 6.85-8.12 8.24-8.59 16.15-19.98 16.15-23.26 0-1.31-0.39-2.39-0.85-2.39-0.47 0-3.46 2.82-6.65 6.25-3.18 3.44-7.58 8.14-9.76 10.46-2.72 2.87-7.9 6.16-16.4 10.41-6.83 3.42-14.75 7.71-17.6 9.55-7.06 4.54-12.98 4.38-20.74-0.59-0.83-0.52-4.16-2.15-7.4-3.61-6.33-2.86-10.95-5.96-18.4-12.35-4.9-4.21-12.75-10.75-24.12-20.12-7.51-6.18-7.74-6.39-18.68-16.91-4.35-4.18-11.89-11.2-16.76-15.6-4.87-4.39-10.27-9.27-12-10.84s-4.72-4.02-6.64-5.44c-1.93-1.42-4.48-3.52-5.66-4.65-1.19-1.13-3.22-2.86-4.5-3.85-1.29-0.98-3.69-2.9-5.34-4.25-4.3-3.52-11.64-6.79-25.7-11.48-21.34-7.1-23.36-8.6-18.94-14.057l1.86-2.302 5.36 3.441c4.71 3.018 6.16 3.438 11.89 3.438 3.59 0 8.25-0.34 10.36-0.75 3.58-0.71 17.39-9.325 27.67-17.263 2.47-1.912 5.46-3.899 6.64-4.416 1.19-0.518 2.77-1.757 3.51-2.754 1.93-2.573 17.72-17.327 21.74-20.313 1.85-1.375 5.11-4.013 7.23-5.861 3.49-3.04 3.81-3.71 3.29-7-0.34-2.177 0.06-5.5 1-8.27 0.89-2.584 1.32-5.928 1-7.568-0.46-2.265 0.02-3.666 2.09-6.119 1.47-1.751 3.17-3.182 3.79-3.182 0.61 0 3.45-1.421 6.32-3.158 5.18-3.142 7.39-6.11 7.39-9.9516 0-1.1083 0.73-4.2659 1.63-7.0169 1.93-5.8861 1.07-7.4397-3.91-7.0989-2.13 0.1462-4.15-0.5521-5.97-2.0645-2.38-1.9781-2.77-3.0641-2.89-8.0721-0.1-4.566 0.34-6.427 2.11-8.822 1.27-1.711 2.45-5.059 2.71-7.676 0.57-5.61 3-10.105 6.55-12.097 2.36-1.328 2.82-1.304 4.53 0.24 1.04 0.944 3.49 1.717 5.44 1.717s4.11 0.675 4.8 1.5c1.72 2.076 6.6 1.888 8.19-0.316 0.72-0.999 2.03-2.085 2.91-2.414 0.89-0.329 1.87-1.89 2.19-3.468 0.31-1.578 2.33-5.105 4.49-7.836 2.15-2.732 4.22-6.207 4.59-7.724s2.43-4.415 4.58-6.441l3.91-3.683-1.93-2.714c-1.06-1.492-1.93-3.042-1.93-3.444s-1.2-1.841-2.67-3.198c-2.26-2.095-3.27-2.369-6.75-1.819-9.24 1.465-16.36 6.239-30.08 20.172-37.55 38.141-44.73 45.584-51.5 53.385-8.07 9.2923-12.16 13.357-18.99 18.876-2.47 1.993-5.17 4.335-6 5.204-4.06 4.246-17.08 14.757-31.51 25.445-11.68 8.648-19.92 15.808-30.5 26.52-15.07 15.251-27.75 30.398-31.29 37.391-1.13 2.24-3.48 6.09-5.21 8.56-3.74 5.33-6.29 10.66-7.14 14.96-0.55 2.74-0.11 3.58 3.73 7.13 2.4 2.22 6.85 5.44 9.88 7.16 7.64 4.34 30.05 20.66 30.71 22.36 0.29 0.77 1.09 1.39 1.77 1.39s2.09 0.95 3.13 2.1c5.16 5.7 43.73 28.26 73.42 42.94 11.49 5.68 16.81 8.23 37.5 17.97 13.41 6.31 35.17 15.99 35.95 15.99 0.31 0 2.48 0.87 4.81 1.93 2.33 1.05 7.61 3.32 11.74 5.03 4.12 1.71 8.85 3.76 10.5 4.56 4 1.94 19.76 6.95 26 8.28 17.13 3.63 24.46 5.4 28 6.77 5.2 2.01 14.46 7.65 22.02 13.41 5.38 4.09 6.95 4.74 14.5 5.93 4.66 0.74 10.73 1.93 13.48 2.65 2.71 0.72 5.91 1.34 6.91 1.38 1.8 0.06 1.8-0.09-0.3-2.35zm-254.61-2.77c2.1-0.96 2.54-1.77 2.3-4.25-0.2-1.97-0.79-2.96-1.68-2.78-0.75 0.16-3.43 0.46-5.96 0.66-5.12 0.4-5.68 1.05-4.22 4.9 1.13 2.99 4.94 3.57 9.56 1.47zm-16.37-12.38c2.07-4.91 3.79-10.4 3.82-12.19 0.04-3.17-0.05-3.24-4.2-3.18-5.49 0.09-7.09 0.8-9.86 4.33-3.99 5.09-2.42 15.11 3.03 19.32 0.87 0.67 2 1.09 2.51 0.94 0.52-0.15 2.63-4.3 4.7-9.22zm30.37 1.53c1.1-0.42 3.08-2.86 4.41-5.42 2.15-4.13 2.25-4.81 0.91-6.15-0.82-0.82-2.58-1.64-3.91-1.81-2.87-0.38-5.85-1.38-7.91-2.66-6.87-4.26-9.74-3.7-12.82 2.49l-2.44 4.92 2.87 2.08c1.57 1.15 4.67 3.52 6.88 5.27 4.07 3.23 6.35 3.48 12.01 1.28zm287.11-121.72c1-3.41 2-4.58 5.3-6.33 4.3-2.34 4.3-2.25 3.1-5.28-0.7-1.93-1.7-2.64-3.6-2.64-1.4 0-4-1.14-5.7-2.55-2.2-1.91-3.9-2.47-6.6-2.25-3.3 0.28-3.9 0.82-6.4 5.8-3.5 6.84-3 10 1.3 10 1.9 0 3.3 0.63 3.7 1.59 1.2 3.21 8 4.49 8.9 1.66zm65.9-2.63c1.5-3.48 3.1-4.59 6.8-4.65 1.2-0.02 3-0.63 3.9-1.36 2.2-1.63 2.3-6.9 0.3-8.61-0.8-0.68-1.5-2.48-1.5-4 0-3.44-1.8-4.93-6.7-5.67-2.1-0.32-5-1.72-6.5-3.12-3.2-2.94-8.1-3.79-10.1-1.76-0.8 0.78-1.7 3.14-2.1 5.24-0.3 2.1-1.7 5.12-3.1 6.72s-2.5 3.49-2.5 4.2c0 1.92 2.2 6.39 3.1 6.39 0.5 0 1.6 1.47 2.5 3.25 2.9 5.77 4.3 6.75 9.6 6.75 4.6 0 5-0.19 6.3-3.38zm-301.51-5.93c0-1.25 8.53-14.63 13.32-20.89 3.72-4.85 3.31-7.91-1.23-9.2-7.12-2.04-13.09-10.86-13.09-19.348 0-9.634 3.98-15.978 19.91-31.728 9.23-9.126 10.7-11.52 7.05-11.52-1.78 0-4.72 2.469-18.94 15.885-5.91 5.58-14.36 12.225-18.78 14.761-2.61 1.499-6.9 4.499-9.53 6.666-7.92 6.513-14.53 10.784-28.1 18.164-2.86 1.55-2 2.7 4.88 6.52 5.96 3.31 17.42 10.75 18.51 12.02 0.27 0.32 3.2 2.67 6.5 5.23s8.64 7.14 11.88 10.18c5.52 5.18 7.62 6.08 7.62 3.26zm198.31 0.2c1.4-0.63 3.1-2.8 4-4.99 1-2.45 2.5-4.24 4.1-4.86 2.6-0.97 3.5-2.92 1.6-3.16-4.4-0.55-5.3-1.7-4.6-6.09l0.6-3.97-4.1 0.69c-3.6 0.61-4.4 0.37-6.9-1.99-2.3-2.22-3.2-2.51-4.8-1.62-2.2 1.17-7.53 7.62-8.48 10.26-0.66 1.82 2.05 4.84 4.38 4.85 2.8 0 7.6 3.84 8.3 6.64 0.7 2.56 2.3 5.35 3.2 5.35 0.1 0 1.4-0.5 2.7-1.11zm-88.96-7.16c1.5-1.09 1.63-2.16 0.94-7.64-1.02-8.14-2.74-9.49-7.14-5.57-3.37 3.01-4.09 6.9-2.18 11.92 1.1 2.88 5.31 3.54 8.38 1.29zm40.74-5.67c1.81-1.51 3.8-4.26 4.43-6.12 0.71-2.12 2.78-4.54 5.56-6.49 3.75-2.64 4.42-3.63 4.42-6.52 0-4.17-1.67-4.69-9.3-2.86-4.17 1.01-5.82 1.03-7.28 0.12-2.82-1.76-7.39-1.44-9.28 0.66-1.51 1.66-1.53 2.19-0.21 5.34 1.53 3.66 1.18 6.96-1.09 10.29-2.26 3.32-1.65 6.13 1.7 7.75 3.88 1.88 6.92 1.28 11.05-2.17zm113.02-3.71c4.1-1.63 4.1-1.7 3.5-5.75-1-7.12-2.3-13.6-2.7-13.97-0.2-0.2-2.1-0.67-4.2-1.05-3.3-0.6-4.1-0.33-6.5 2.14-1.5 1.55-3.9 3.32-5.3 3.94-2.8 1.25-5.5 8.04-4.4 11.39 0.5 1.56 1.6 1.96 5.3 1.99 2.6 0.02 5.8 0.68 7.2 1.46 3.1 1.77 2.2 1.79 7.1-0.15zm103.9-2.35c1.6-1.23 4.1-1.96 6.7-1.97 4.8-0.03 5.3-1.13 2.7-6.21-1.4-2.61-1.4-3.74-0.4-7.47 1.1-3.84 1-4.62-0.5-6.28-1.6-1.86-1.8-1.85-6.8 0.48-3.1 1.43-6.1 2.15-7.4 1.81-1.7-0.41-2.9 0.09-4.3 1.78-3.2 4.01-3.2 6.34 0 12.74 3.9 7.63 5.6 8.53 10 5.12zm-50.3-8.95c2.4-3.82 4.5-4.11 10.3-1.43 4.4 2.01 5.9 2.29 7.8 1.44 1.2-0.59 2.1-1.46 1.8-1.93-0.3-0.48 0.5-3.06 1.9-5.75 2.9-5.63 3-6.72 1.1-8.61-0.8-0.76-1.7-2.756-2-4.438-1.3-5.775-3.8-7.329-11.9-7.325-5.4 0.003-8 0.497-10.4 1.969-3.2 1.923-3.6 2.809-4.8 10.104-0.3 2.13-1.7 4.73-3.5 6.44-4.4 4.18-4 7.12 1.2 9.45 5.5 2.45 7 2.46 8.5 0.08zm-21.9-4.31c1.5-0.72 2.6-2.59 3.3-5.34 0.6-2.33 2.2-5.25 3.5-6.49 5.1-4.767 2.3-8.79-7.4-10.807-11-2.283-14.2-1.092-14.2 5.29 0 1.387-1.1 4.167-2.5 6.177-1.4 2.04-2.3 4.59-2.1 5.79 0.3 1.18 0.5 2.46 0.5 2.85 0.1 0.39 1.8 1.01 3.8 1.39 2.1 0.38 4.6 1.23 5.6 1.9 1.9 1.32 5.8 1 9.5-0.76zm-215.26-7.99c0.37-1.23 1.36-3.02 2.19-3.97 1.35-1.53 1.34-2.084-0.12-5.148-0.89-1.887-1.62-3.925-1.62-4.53 0-1.211-1.67-1.326-4.04-0.278-0.84 0.374-3.48 2.807-5.86 5.407l-4.32 4.729 2.86 3.02c3.69 3.91 9.82 4.35 10.91 0.77zm44.45-5.738c0-1.913-4.79-3.41-7.54-2.355-2.31 0.885-1.33 3.663 1.54 4.373 3.53 0.86 6 0.04 6-2.018zm144.91 1.098c1.4-1.43 1.9-3.427 2-8.233 0.1-8.505 2.1-11.261 8.4-11.677 2.5-0.167 5.6 0.204 6.7 0.824 1.6 0.846 3.3 0.815 7-0.125 5.9-1.5 9.5-0.302 11 3.618 1.6 4.178 3.8 4.182 7.2 0.011 3.4-4.072 2.4-3.941 14.9-1.919 5.5 0.889 5.9-1.189 0.9-5.468-7.4-6.418-6.5-15.478 1.8-17.954 5.1-1.524 12.2-8.446 12.3-11.971 0-1.492 0.2-3.612 0.5-4.712 1.1-4.876 0.5-17.759-1.2-22.728-1.8-5.528-7.2-14.772-8.6-14.772-0.4-0.0004-0.8-0.5629-0.8-1.2504-0.1-1.7677-6.5-8.4472-8.9-9.2031-1.1-0.347-2.8-0.8191-3.8-1.049s-3.7-1.0978-6-1.9287c-9.6-3.4868-24.3-3.0418-32.3 0.9838-6.4 3.1728-14 3.9053-14 1.34 0-0.4912-0.5-0.893-1-0.893-0.6 0-1 0.5712-1 1.2694 0 1.2256-20.4 11.731-22.8 11.731-0.6-0.0004-1.8-1.2833-2.6-2.8513-2-3.7838-0.6-5.8398 7.1-10.256 10.3-5.8887 17.3-7.2617 17.3-3.3741 0 2.6635 1.6 1.5558 2.8-2.0186 0.7-1.925 1.7-3.5 2.2-3.5 1.1 0 3.1-9.284 2.2-10.177-0.4-0.372-2.7-0.967-5.1-1.322-5.8-0.851-11.9-3.297-15.4-6.175-1.6-1.279-2.5-2.326-2.1-2.326s0.1-0.563-0.8-1.25c-2.7-2.109-17.2-23.807-21.2-31.75-2.1-4.125-3.9-8.885-3.9-10.577-0.1-3.744 2.1-9.423 3.7-9.423 1.2 0 3.5 3.998 6.1 11 0.9 2.475 2.2 5.175 2.8 6 0.7 0.825 2.4 3.855 3.7 6.734 1.4 2.879 2.8 5.241 3.2 5.25s0.8 0.502 0.8 1.096c0 1.747 6.6 11.19 10.7 15.312 3.7 3.747 10.6 7.32 13 6.79 0.7-0.148 1.3 0.2 1.3 0.774 0 1.982 7.9 1.039 13.7-1.628 5-2.29 14-5.17 25.8-8.236 9.8-2.557 24.7-14.674 31.9-26.092 1.6-2.475 3.7-5.72 4.7-7.21 1.1-1.49 1.9-3.036 1.9-3.435 0-0.4 0.9-1.677 2-2.84 1.7-1.877 1.8-2.34 0.5-4.15-1-1.471-2.6-2.083-5.8-2.205-8.7-0.326-13.8-3.891-17.7-12.164-1.1-2.47-2.8-5.72-3.8-7.21-1.1-1.78-1.3-3.05-0.7-3.68 2.1-2.04 24.5-1.1 24.5 1.02 0 0.48 0.6 0.87 1.3 0.87 2.4 0 8.7 10.1 8.7 13.954 0 3.095 2 2.429 7.3-2.414 4.5-4.17 4.6-4.42 2.5-5.07-1.3-0.37-5-3.33-8.3-6.58-5.8-5.64-6.4-5.97-14-7.41-8-1.52-10.9-3.32-10.3-6.46 0.4-1.64 2.3-1.71 13.8-0.51 7.6 0.79 13.7 3.89 19.2 9.72 2.6 2.7 3.8 4.86 3.8 6.86 0 3.5 0.9 3.67 3.7 0.66 7.2-7.67 12.8-19.03 13.6-27.52 0.4-3.45 1.3-7.59 2.2-9.2 0.8-1.61 1.5-3.95 1.5-5.21 0-3.86-6-11.32-12.8-15.94-3.6-2.4-8.7-7.07-11.4-10.37-6.7-8.15-8.3-9.17-17.4-11.39-8.6-2.1-14.9-4.51-15.9-6.1-1-1.66-3.4-1.17-6.8 1.37-1.8 1.32-4.7 2.7-6.5 3.08-1.7 0.38-4.3 1.89-5.6 3.36s-3.5 3.88-4.8 5.34c-2.3 2.57-12.6 7.83-15.4 7.83-0.7 0-3.7 1.93-6.6 4.28-9 7.23-11.1 8.42-18.8 10.67-11.6 3.38-13.4 4.51-19 12.06-2.9 3.84-5.6 6.99-6.1 6.99-0.4 0-1.8 3.27-3.1 7.25-1.2 3.99-4.3 10.63-6.8 14.75-5.7 9.33-16.9 32.326-17.4 35.5-0.1 0.597-1.2 2.781-2.4 4.852s-2.2 4.113-2.2 4.536c0 0.953-4.4 11.808-7.6 18.866-9.4 20.504-9.9 21.774-11.9 28-1.2 3.615-2.2 5.25-3.4 5.25-2.5 0-6.11-2.88-6.11-4.955 0-1.6 4.01-10.814 7.11-16.417 1.6-2.917 3.9-10.848 3.9-13.773 0-2.545-0.2-2.612-3.8-1.774-5.83 1.362-15.92 1.068-19.87-0.581-4.86-2.03-8.04-1.887-11.07 0.5-1.4 1.1-3.37 2-4.39 2-2.47 0-4.96 4.011-4.37 7.046 0.26 1.35 0.73 3.804 1.04 5.454 1.01 5.369-4.02 13.895-8.83 14.974-1.22 0.274-4.25 0.617-6.72 0.762-4.46 0.261-4.51 0.308-5.52 4.764-0.56 2.475-2.02 6.075-3.25 8-1.22 1.925-2.23 3.837-2.23 4.25-0.01 0.9593 1.44 0.9695 2.4 0.017 0.4-0.404 2.59-1.282 4.86-1.953 3.45-1.019 4.66-0.968 7.36 0.31 3.48 1.654 6.38 6.5602 6.38 10.817 0 1.4518 0.94 3.9217 2.1 5.4888 1.7 2.2976 1.98 3.6392 1.42 6.9302-0.38 2.244-1.5 5.106-2.48 6.36s-2 4.08-2.26 6.28c-0.25 2.2-0.81 4.787-1.23 5.75-0.64 1.45-0.25 1.75 2.26 1.75 5.21 0 11.19 8.214 11.19 15.366 0 2.066 2.51 2.082 8.12 0.049 3.78-1.371 5.48-1.418 12.56-0.35 6.32 0.955 8.83 0.967 11.03 0.053 3.6-1.474 8.6 0.128 18.9 6.029 5.5 3.131 8.1 5.436 11.3 9.963 2.3 3.239 4.7 5.89 5.4 5.89s2.9 1.141 5 2.536c2.9 1.985 3.7 2.202 3.7 1 0-0.845 0.6-1.536 1.3-1.536 2.2 0 2.8 1.221 1.1 2.407-1.3 0.975-1.2 1.593 0.5 5.24 1.1 2.274 2.3 5.922 2.7 8.106 0.9 5.9 1.4 6.361 5.5 5.115 2.7-0.852 4.2-0.743 7.3 0.523 2.1 0.877 4.2 1.347 4.7 1.043 1.4-0.868 1-5.852-0.6-7.993-2.1-2.824-1.9-8.773 0.4-10.861 2.6-2.356 7-1.659 9.3 1.486 3.6 4.821 4.2 14.562 1.2 21.013-2.7 6.087 0.2 9.337 4.5 5.027zm7.6-151.76c-5-2.641-10.2-8.257-11.6-12.664-0.7-2.3-1.9-5.052-2.6-6.115-0.7-1.064-1-2.982-0.7-4.263s0.1-2.979-0.6-3.773c-2-2.366-0.4-3.404 3.7-2.45 2.1 0.479 7.1 0.883 11.2 0.896 6.6 0.021 7.8 0.319 10.1 2.536 1.4 1.381 5.3 3.542 8.6 4.801 5.9 2.277 5.9 2.319 6.7 7.238 0.5 2.722 1.5 6.223 2.3 7.78 2.6 5.153 1.6 6.625-3.1 4.722-1.1-0.443-2.5-0.477-3-0.074-1.7 1.241-10.2 3.023-14.2 2.981-2.1-0.022-5.2-0.749-6.8-1.615zm14-8.345c-0.4-0.55-1.2-0.994-1.8-0.985-0.7 0.009-0.6 0.402 0.3 0.985 1.9 1.241 2.3 1.241 1.5 0zm-7.2-5.536c-5.2-4.562-3.8-0.515-4.6-0.498-1.3 0.026 2.2 2.392 3.7 3.565 1.1 0.808 2.7 1.454 3.5 1.437 1.3-0.026-1.1-3.33-2.6-4.504zm10-22.464c-5.3-5.439-6.3-6.99-6.1-9.5 0.3-2.676 0.7-3.034 4-3.307 3.2-0.267 3.9 0.068 5.2 2.661 2.4 4.709 6.1 7.094 10 6.467 4.6-0.747 7.6 1.061 7.6 4.591 0 3.959-2 5.189-8.6 5.403l-5.7 0.185-6.4-6.5zm5.7-32.944c-0.8-0.48-4.4-1.41-8-2.05-11.3-2.05-19.3-7.42-25.9-17.24-2.5-3.85-5.1-7.62-5.6-8.36-2-2.81 0.8-3.69 8.1-2.53 3.8 0.6 9.9 1.35 13.5 1.67 5.5 0.48 7.6 1.27 12.8 4.61 7.1 4.66 9.5 8.81 10.6 18.59 0.7 6.1 0.6 6.25-1.7 6.22-1.3-0.01-3-0.42-3.8-0.91zm-4-11.5c0-3.14-1.7-4.19-2.5-1.57-0.4 1.11-1.4 2.06-2.3 2.11-1.1 0.06-0.8 0.41 0.8 0.9 3.8 1.23 4 1.17 4-1.44zm-9.2-7c1.5-0.82 1.3-1.05-0.8-1.65-3.7-1.04-11-1.05-11-0.02 0 0.49 1 1.56 2.2 2.38 1.3 0.83 3.4 2.5 4.8 3.71l2.5 2.21 0.3-2.84c0.2-1.57 1.1-3.27 2-3.79zm24.4 0.58c-5.1-8-14.2-15.7-21.2-17.82-6.5-1.96-9.4-4.24-8.4-6.63 1.3-3.62 15.2-0.36 25.1 5.91 10.1 6.46 16.7 18.04 12.7 22.44-2.7 3.08-4.2 2.39-8.2-3.9zm-85 237.72c0.2-0.628-0.1-3.343-0.6-6.032-0.8-3.893-1.5-5.011-3.4-5.484-2.4-0.598-4.7-4.714-3.7-6.432 1.3-2.006-2.6-1.975-5.2 0.041-1.5 1.2-3.8 2.012-5.1 1.846-2.4-0.282-2.5-0.007-2.8 5.704-0.5 10.233 0.6 11.446 6.2 6.57 2.9-2.596 3.6-2.807 6.2-1.85 1.5 0.594 3.6 2.363 4.5 3.93 1.7 2.976 3.2 3.656 3.9 1.707zm-48.52-11.107c1.84-2.434 3.67-9.783 2.69-10.765-1.03-1.028-13.43-3.021-14.58-2.343-0.77 0.454-0.2 11.3 0.65 12.14 0.47 0.475 6.29 1.809 9.17 2.103 0.62 0.063 1.55-0.448 2.07-1.135zm190.32-5.372c0.7-1.838 0.7-3.034-0.1-4-0.6-0.758-0.9-1.378-0.5-1.378s-0.5-1.555-1.9-3.455c-2.7-3.437-2.7-3.469-0.8-6.557 1.8-3.093 1.8-3.11-0.7-5.059-2-1.558-3.5-1.836-7.2-1.365-2.5 0.326-6.3 0.127-8.3-0.441-3.1-0.855-4.4-0.703-7.5 0.879-4.1 2.087-5 3.575-5 8.215 0 1.972 0.9 3.873 2.5 5.37 1.4 1.274 2.5 3.374 2.5 4.665s0.5 2.888 1.2 3.548c1.4 1.452 7 1.587 8.4 0.204 1.8-1.827 7.2-1.796 10.1 0.059 4 2.563 6.2 2.36 7.3-0.685zm-250.93-4.799c2.04-3.462 7.35-6.301 8.45-4.52 1.09 1.754 6.34 0.952 9.05-1.382 2.35-2.013 2.61-2.807 2.02-5.957-0.41-2.204-1.75-4.473-3.39-5.766-1.49-1.173-5.53-4.793-8.97-8.044-3.43-3.251-6.82-5.91-7.52-5.91s-2.11 1.556-3.13 3.459c-1.56 2.898-2.58 3.565-6.25 4.117l-4.39 0.658 0.68 3.633c0.38 1.998 0.6 4.083 0.48 4.633-1.67 8.096 0.24 15.888 4.29 17.526 4.3 1.739 6.59 1.092 8.68-2.447zm-49.18-20.86c2.1-4.89 5.37-6.902 9.03-5.55 3.9 1.446 5.32-0.822 3.21-5.169-1.36-2.825-2.17-3.432-4.17-3.148-3.51 0.499-5.97 1.986-5.97 3.605 0 0.763-2.12 3.191-4.7 5.397-4.36 3.734-4.61 4.187-3.52 6.578 1.73 3.798 4.04 3.154 6.12-1.713zm79.14-10.81c1.59-2.969-0.44-7.369-4.26-9.219-4.28-2.068-6.22-1.53-6.62 1.829-0.26 2.267 0.44 3.503 3.5 6.123 4.51 3.861 5.87 4.095 7.38 1.267zm-109.13-4.515c1.77-0.883 3.59-2.589 4.05-3.791 0.45-1.202 1.55-2.785 2.43-3.517 2.21-1.832 1.96-4.067-0.84-7.485-2.2-2.693-2.71-2.852-7.19-2.238-6.49 0.889-8.13 2.603-6.61 6.877 0.64 1.793 1.11 4.765 1.05 6.605-0.1 2.92 1.29 5.088 3.29 5.139 0.33 0.009 2.05-0.707 3.82-1.59zm96.84-19.074c0.68-0.936 1.25-2.897 1.25-4.357 0-1.459 0.9-3.468 2-4.463 2.53-2.292 2.53-4.304 0-6.9979-1.1-1.1695-2.17-3.5791-2.38-5.3546-0.46-3.9485-0.69-4.1981-4.82-5.1009-2.4-0.5237-4.39-0.1837-7.26 1.2419-3.43 1.7016-4.41 1.7989-7.37 0.7303-2.64-0.9543-3.91-0.9655-5.62-0.0496-2.7 1.4474-7.9 12.381-7.09 14.926 1.12 3.519 4.31 5.374 9.54 5.54 4.24 0.135 5.48 0.645 7.85 3.24 2.54 2.781 3.29 3.044 7.73 2.714 3.14-0.234 5.37-0.979 6.17-2.069zm-62.5-6.532c1.9 0.091 3.24-0.619 4.35-2.302 1.47-2.246 1.46-2.569-0.16-4.182-3.64-3.6476-6.02-4.2379-9.23-2.2896-2.56 1.5557-2.95 2.3706-2.85 5.9436 0.1 3.931 0.23 4.104 2.62 3.42 1.38-0.397 3.75-0.662 5.27-0.59zm25.63-27.363c7.5-5.446 8.28-6.333 7.57-8.575-0.36-1.126-1.51-2.903-2.55-3.949-1.05-1.046-1.9-2.501-1.9-3.234 0-1.881-5.71-3.283-10.9-2.679-3.26 0.378-4.92 1.208-6.39 3.182l-1.99 2.67 2.14 2.714c1.29 1.644 2.14 4.152 2.14 6.358 0 2.003 0.71 4.6609 1.58 5.9055 1.93 2.7545 3.83 2.3144 10.3-2.3925zm-39.57-4.367c1.2-2.719 3.2-5.495 4.44-6.169 3.17-1.731 2.85-5.439-0.79-9.075-2.35-2.354-3.52-2.863-5.25-2.276-3.39 1.156-9.06 0.935-9.49-0.372-0.42-1.266-5.2-1.645-5.26-0.416-0.22 4.238-1.44 9.066-2.66 10.432-1.02 1.151-1.28 2.653-0.82 4.75 0.64 2.914 0.92 3.068 5.57 3.068 4.12 0 5.16 0.396 6.54 2.5 2.64 4.0261 5.22 3.2091 7.72-2.442zm76.23-20.61c6.95-1.812 7.03-1.874 7.81-6.448 1-5.83-1.57-8.099-9.41-8.32l-6.44-0.18-0.32 3.248c-0.18 1.876-1.08 3.66-2.13 4.222-2.7 1.445-3.3 4.011-1.55 6.67 1.81 2.776 3.93 2.918 12.04 0.808zm245.97-6.282c5.9-1.648 6-1.767 9-7.884 2.6-5.53 3.5-6.431 7.8-8.236 4.8-1.989 4.9-2.099 4.4-5.787-0.2-2.155 0.4-6.319 1.4-9.759 1-3.3 1.9-6.332 1.9-6.738 0-0.405-1.8-1.874-4-3.262-3.2-2.02-4-3.119-4-5.49 0-4.352-3.3-6.081-11.9-6.241-9.8-0.18-12.5 1.832-16.2 12.03-0.7 1.998-3 4.513-5.7 6.375l-4.4 3.076 0.6 5.005c0.6 4.303 0.4 5.331-1.5 7.323-1.2 1.274-2.2 3.395-2.2 4.713 0 2.574 2.9 7.709 4.4 7.709 0.5 0 0.9 0.762 0.9 1.695 0 0.932 1.2 2.957 2.7 4.5 3.2 3.333 7.4 3.58 16.8 0.971zm-282.71-1.807c2.4-0.364 4.2-2.585 4.23-5.232 0.04-3.314 1.87-5.762 5.3-7.063 1.85-0.703 2.67-1.738 2.67-3.371 0-2.378-1.17-3.238-7.75-5.714-1.79-0.672-3.25-1.546-3.25-1.942 0-0.794-7.34 0.238-10.5 1.477-3.34 1.308-6.5 4.708-6.5 6.992 0 1.397 1.32 3.012 3.75 4.578 3.21 2.077 3.79 3.013 4.05 6.605 0.25 3.414 0.71 4.253 2.5 4.549 1.21 0.2 2.65 0.129 3.2-0.159s1.58-0.612 2.3-0.72zm49.45-21.367c1.51-0.722 2.75-1.709 2.75-2.192s1.74-2.688 3.86-4.902c3.28-3.415 3.96-4.872 4.45-9.64 0.69-6.677-0.57-8.177-6.88-8.227-3.62-0.028-4.23-0.392-5.5-3.281-2.02-4.586-5.86-4.863-11.47-0.829-2.36 1.693-5.12 3.085-6.13 3.094-2.91 0.024-4.03 1.204-5.22 5.485-1.82 6.583-1.47 8.105 2.29 9.886 1.87 0.887 4.7 1.614 6.3 1.614 3.12 0 5.3 1.557 5.3 3.795 0 2.403 3.81 6.886 5.7 6.694 0.99-0.1 3.03-0.774 4.55-1.497zm-52.5-19.827c0.96-1.01 2.4-2.801 3.2-3.981 0.8-1.181 3.86-3.281 6.79-4.668 2.92-1.386 5.56-3.154 5.86-3.929 0.91-2.38-2.2-7.001-8.15-12.081-6.39-5.46-7.56-5.38-10.91 0.73-1.4 2.55-3.03 3.89-5.71 4.69-6.74 2.03-7.02 5.177-1.24 14.118 4.79 7.396 6.95 8.485 10.16 5.121zm103.56-11.165c2.8-2.75 5.4-5.004 5.8-5.004 0.5 0 1.3-1.91 1.9-4.25 0.6-2.33 1.7-5.6 2.5-7.25 6.1-13.51 6.2-14.5 1.5-14.5-3.3 0-4.5 2.45-5.5 10.99-0.7 5.67-2.9 10.22-6.6 13.58-2.7 2.48-7.3 11.434-5.8 11.434 0.6 0 3.4-2.25 6.2-5zm149.7-1.309c0-0.72-0.7-2.183-1.5-3.255-1.5-1.9-1.5-1.89-2.1 0.31-0.4 1.241-1.2 2.285-1.8 2.324-1.3 0.085 2.4 1.759 4.1 1.859 0.7 0.039 1.3-0.518 1.3-1.238zm-10.7-6.385c0.7-4.3 0.8-4.18-2.4-4.53-3.1-0.35-3.7 2.79-1.2 5.96 2.4 3.05 2.9 2.855 3.6-1.43zm65.3-18.43c3.4-4.87 5.3-10.17 4.6-13.18-0.6-3.04-2.5-1.34-3.9 3.69-0.8 2.63-2.7 6.61-4.4 8.85-3.3 4.62-3.6 6.05-1.2 5.59 0.9-0.18 3.1-2.41 4.9-4.95zm-180.7-28.76c1.2-2.64 2.5-3.46 8.1-5.12 7.2-2.14 10-4.36 10-7.87 0-2 1.7-4.14 6.4-7.92 1.8-1.48 2.1-5.43 0.5-8.34-0.8-1.53-0.7-2.58 0.5-4.43 3.2-4.87-0.9-10.44-7.7-10.44-2.5 0-3.9-0.7-5.5-2.96-1.2-1.62-2.2-3.8-2.2-4.84s-0.8-2.63-1.8-3.53c-2.3-2.07-8.2-3.36-8.2-1.79 0 0.62-0.6 1.12-1.4 1.12-0.7 0-1.9 0.62-2.5 1.38-0.6 0.75-3.4 1.66-6.1 2.02-9.8 1.31-11.9 2.89-13.5 10.08-0.4 1.64-2.4 4.66-4.6 6.71-4.6 4.41-5.2 8.77-1.8 12.49 1.8 1.82 2.2 3.6 2.3 8.47 0.1 5.99 0.2 6.23 3.6 8.11 1.9 1.07 5 3.13 6.9 4.59 8.9 6.84 14.5 7.58 17 2.27zm50-60.12c2.9-2.2 5.8-4 6.5-4s2.1-0.91 3.1-2.02c2.5-2.73 0.8-4.37-2.5-2.46-5.2 2.97-9 4.48-11.4 4.48-3 0-4.5 2.24-3.8 5.6 0.6 3.3 1.9 3.04 8.1-1.6zm84.1-2.51c0-2.73-11.8-8-13.7-6.12-0.9 0.88 3.1 4.5 6.7 6.05 4.5 1.94 7 1.97 7 0.07zm-18.7-9.72c-0.2-0.41-2.4-1.9-4.8-3.32-3.1-1.81-5.5-2.48-8.1-2.26-4.5 0.38-5.1 1.65-2.4 4.64 1.9 1.96 3 2.2 9 1.96 3.7-0.16 6.6-0.62 6.3-1.02z"/>
  </g>
  <metadata>
    <rdf:RDF>
      <cc:Work>
        <dc:format>image/svg+xml</dc:format>
        <dc:type rdf:resource="http://purl.org/dc/dcmitype/StillImage"/>
        <cc:license rdf:resource="http://creativecommons.org/licenses/publicdomain/"/>
        <dc:publisher>
          <cc:Agent rdf:about="http://openclipart.org/">
            <dc:title>Openclipart</dc:title>
          </cc:Agent>
        </dc:publisher>
      </cc:Work>
      <cc:License rdf:about="http://creativecommons.org/licenses/publicdomain/">
        <cc:permits rdf:resource="http://creativecommons.org/ns#Reproduction"/>
        <cc:permits rdf:resource="http://creativecommons.org/ns#Distribution"/>
        <cc:permits rdf:resource="http://creativecommons.org/ns#DerivativeWorks"/>
      </cc:License>
    </rdf:RDF>
  </metadata>
</svg>
